<?xml version="1.0" encoding="UTF-8" standalone="no"?>
<!-- Created with Inkscape (http://www.inkscape.org/) -->

<svg
   width="210mm"
   height="297mm"
   viewBox="0 0 210 297"
   version="1.1"
   id="svg1"
   xml:space="preserve"
   sodipodi:docname="refined wk9logo.svg"
   inkscape:export-filename="refined.png"
   inkscape:export-xdpi="96"
   inkscape:export-ydpi="96"
   xmlns:inkscape="http://www.inkscape.org/namespaces/inkscape"
   xmlns:sodipodi="http://sodipodi.sourceforge.net/DTD/sodipodi-0.dtd"
   xmlns="http://www.w3.org/2000/svg"
   xmlns:svg="http://www.w3.org/2000/svg"><sodipodi:namedview
     id="namedview1"
     pagecolor="#ffffff"
     bordercolor="#000000"
     borderopacity="0.25"
     inkscape:showpageshadow="2"
     inkscape:pageopacity="0.0"
     inkscape:pagecheckerboard="0"
     inkscape:deskcolor="#d1d1d1"
     inkscape:document-units="mm"><inkscape:page
       x="0"
       y="0"
       width="210"
       height="297"
       id="page2"
       margin="0"
       bleed="0" /></sodipodi:namedview><defs
     id="defs1" /><g
     inkscape:label="Layer 1"
     inkscape:groupmode="layer"
     id="layer1"><g
       id="g11"
       transform="translate(37.437913,11.593387)"><g
         id="g1"
         transform="matrix(1,0,0,1.0059186,-29.648029,-5.5530698)"><path
           style="fill:#000000"
           d="m 106.14116,154.333 -1.32773,-5.9657 h 1.14327 c 0.96875,0 1.16413,0.0909 1.27989,0.59531 0.0751,0.32743 0.43101,2.12963 0.79084,4.0049 0.35982,1.87527 0.70526,3.46062 0.76764,3.523 0.0624,0.0624 0.49217,-1.53147 0.9551,-3.54188 0.46293,-2.01041 0.89974,-3.86365 0.9707,-4.11831 0.0931,-0.33406 0.40106,-0.46302 1.10583,-0.46302 h 0.97683 l 0.92111,4.10104 c 0.50661,2.25558 0.98625,4.10104 1.06587,4.10104 0.0796,0 0.48722,-1.84546 0.90579,-4.10104 l 0.76103,-4.10104 h 1.1472 c 0.63095,0 1.14719,0.0375 1.14719,0.0834 0,0.16088 -2.40306,10.9019 -2.54151,11.35986 -0.10537,0.34853 -0.42449,0.46302 -1.29061,0.46302 h -1.15063 l -0.69463,-2.97656 c -1.34799,-5.77623 -1.14301,-5.67471 -2.27033,-1.12448 l -0.98325,3.96875 -1.17593,0.0787 -1.17593,0.0787 z m 15.58471,5.41281 c -1.31214,-0.80002 -1.91367,-1.98819 -1.91482,-3.78228 -10e-4,-2.17372 0.73182,-3.51324 2.30367,-4.20854 1.98155,-0.87654 4.10313,-0.31285 4.93485,1.31116 0.20425,0.39881 0.45602,1.35019 0.5595,2.11417 l 0.18814,1.38906 h -2.91047 c -2.74775,0 -2.90299,0.0286 -2.77658,0.51204 0.35536,1.35887 2.66147,1.96024 3.74763,0.97727 0.44192,-0.39992 0.51608,-0.38683 1.05437,0.18616 0.55061,0.58609 0.5561,0.63634 0.1119,1.02394 -1.33328,1.16337 -3.80717,1.38611 -5.29819,0.47702 z m 3.64044,-5.20611 c 0,-0.67824 -0.79997,-1.4099 -1.54153,-1.4099 -0.80331,0 -1.63347,0.69318 -1.63347,1.36392 0,0.42026 0.22084,0.48816 1.5875,0.48816 1.30702,0 1.5875,-0.0781 1.5875,-0.44218 z m 5.29166,5.54766 c -0.70154,-0.25527 -1.85208,-1.48526 -1.85208,-1.97998 0,-0.72536 1.86807,-0.6739 2.329,0.0642 0.27146,0.43468 0.56301,0.52761 1.45271,0.46302 0.98397,-0.0714 1.11308,-0.15625 1.11308,-0.73126 0,-0.52115 -0.21039,-0.72361 -1.05833,-1.01844 -3.20305,-1.11368 -3.57188,-1.4289 -3.57188,-3.05269 0,-2.40674 4.19984,-3.42241 6.13789,-1.48435 0.40771,0.4077 0.74128,0.98856 0.74128,1.29079 0,0.46315 -0.16354,0.54952 -1.0405,0.54952 -0.80773,0 -1.07804,-0.11824 -1.20826,-0.52855 -0.33755,-1.0635 -2.25802,-0.96874 -2.47241,0.122 -0.13091,0.66604 0.18981,0.88705 1.95404,1.34658 4.45825,1.16122 2.65845,4.12061 1.44951,4.74578 -0.74328,0.38436 -3.14918,0.51357 -3.97405,0.21342 z m 8.41094,-0.0938 c -0.66115,-0.38543 -0.99945,-1.92254 -1.00113,-4.54869 -0.001,-2.13823 -0.0419,-2.31511 -0.53064,-2.31511 -0.41157,0 -0.52917,-0.17639 -0.52917,-0.79375 0,-0.61736 0.1176,-0.79375 0.52917,-0.79375 0.44097,0 0.52917,-0.17639 0.52917,-1.05833 v -1.05834 h 1.19062 1.19063 v 1.05834 c 0,0.99953 0.0441,1.05833 0.79375,1.05833 0.70555,0 0.79375,0.0882 0.79375,0.79375 0,0.70766 -0.0871,0.79375 -0.80333,0.79375 h -0.80334 l 0.0757,2.57969 0.0757,2.57969 0.7276,0.0837 c 0.63623,0.0732 0.72761,0.19781 0.72761,0.99218 v 0.90847 l -1.25677,-0.008 c -0.69123,-0.004 -1.46045,-0.12679 -1.70938,-0.27191 z"
           id="path19"
           sodipodi:nodetypes="ccscssssscssscsssscssccccscssscscsssssssssssssssssssssssssccsssscccsssscccsscccc" /><path
           style="fill:#ef910b;fill-opacity:1"
           d="m 84.403738,169.08924 c -0.774046,-0.36587 -1.346904,-0.72566 -1.273017,-0.79955 0.07389,-0.0739 1.004855,-0.13399 2.068817,-0.13357 2.216398,8.8e-4 2.860517,-0.24503 2.860517,-1.09209 0,-0.83602 -0.486571,-1.23423 -1.508125,-1.23423 -0.480219,0 -0.873125,-0.0542 -0.873125,-0.12054 0,-0.0663 0.286474,-0.54269 0.636608,-1.05864 0.375672,-0.55358 0.579922,-1.15487 0.498308,-1.46696 -0.07606,-0.29087 -0.03512,-0.52813 0.091,-0.52723 0.126113,9e-4 0.56136,1.10222 0.967216,2.4474 0.405856,1.34517 0.799368,2.6261 0.874472,2.84652 0.0961,0.28202 -0.30063,0.61517 -1.339094,1.12448 -0.811605,0.39805 -1.502774,0.7138 -1.53593,0.70167 -0.03316,-0.0121 -0.693596,-0.3214 -1.467643,-0.68726 z M 71.991652,168.0277 c 0.257431,-0.0671 0.614619,-0.0627 0.79375,0.01 0.179132,0.0725 -0.03149,0.12736 -0.468056,0.12197 -0.436563,-0.005 -0.583125,-0.0647 -0.325694,-0.13177 z m 4.906293,0.003 c 0.190996,-0.0764 0.419199,-0.067 0.507118,0.0209 0.08792,0.0879 -0.06835,0.15045 -0.347266,0.13896 -0.308224,-0.0127 -0.370919,-0.0754 -0.159852,-0.15985 z m 16.404167,0 c 0.190996,-0.0764 1.584961,0.20202 1.672879,0.28992 0.08792,0.0879 -1.234111,-0.11857 -1.513026,-0.13006 -0.308225,-0.0127 -0.370919,-0.0754 -0.159853,-0.15985 z m 2.166276,0.0768 c 0,-0.0572 0.184778,-0.17489 0.410617,-0.26156 0.23546,-0.0904 0.341663,-0.046 0.248969,0.10399 -0.155379,0.25141 -0.659586,0.37186 -0.659586,0.15757 z m 0.732785,-1.15891 c -0.08454,-0.32328 -0.432829,-0.69961 -0.773976,-0.8363 -0.387092,-0.15509 -0.461621,-0.25482 -0.198253,-0.26529 0.538039,-0.0214 1.387599,0.90439 1.23901,1.35016 -0.0641,0.1923 -0.179645,0.0846 -0.266781,-0.24857 z m -28.405175,-0.99327 c -0.3915,-0.51328 -0.66545,-0.97638 -0.608777,-1.02911 0.05667,-0.0527 0.429332,0.36724 0.828131,0.93325 0.905129,1.28463 0.741807,1.35601 -0.219354,0.0959 z m 22.810672,-0.68733 c -0.220571,-1.10285 -0.58968,-2.12367 -0.35137,-1.03858 0.100456,0.45738 0.710376,1.69381 0.64297,1.76122 -0.06741,0.0674 -0.198627,-0.25778 -0.291598,-0.72264 z m 3.030523,-0.38585 c 0.0127,-0.30822 0.07539,-0.37092 0.159853,-0.15985 0.07643,0.19099 0.06703,0.4192 -0.02089,0.50712 -0.08792,0.0879 -0.150452,-0.0684 -0.138963,-0.34727 z M 71.260886,164.7745 c -0.09269,-0.14998 0.01351,-0.19434 0.248968,-0.10399 0.458369,0.1759 0.542234,0.36554 0.161648,0.36554 -0.136932,0 -0.32171,-0.1177 -0.410616,-0.26155 z m 3.730326,-0.57243 c 0.313325,-0.44366 0.566311,-2.25238 0.932586,-1.88823 0.06468,0.0625 -0.474694,1.67858 -0.814993,2.00196 l -1.246443,1.4847 z m -4.584649,-0.0259 c -0.396658,-0.51288 -0.646176,-0.99219 -0.516512,-0.99219 0.06461,0 0.312509,0.29765 0.550881,0.66146 0.446043,0.68074 0.421203,0.91978 -0.03437,0.33073 z m 22.418512,-2.51857 c -0.436989,-1.79049 -0.598409,-3.09847 -0.529983,-4.29446 0.246843,-4.31443 0.188414,-4.77854 -0.862185,-6.84857 -1.159195,-2.28399 -1.246411,-3.25682 -0.365554,-4.07752 1.289612,-1.20152 2.813535,-2.32391 2.813535,-2.0722 0,0.14341 0.68461,0.45147 1.521355,0.68458 0.836744,0.23312 1.804813,0.54376 2.151263,0.69033 l 0.62991,0.26648 -0.139662,4.8546 c -0.08622,2.99709 -0.294249,4.05047 -0.693437,5.57626 -0.600645,2.29582 -2.606421,6.62733 -3.402508,7.34777 -0.476767,0.43147 -0.516714,0.35578 -1.122734,-2.12727 z m -2.761746,1.63977 c -0.09732,-0.38775 -0.125917,-0.75603 -0.06355,-0.81839 0.06237,-0.0624 0.193017,0.20385 0.290336,0.59161 0.09732,0.38775 0.125918,0.75602 0.06355,0.81839 -0.06237,0.0624 -0.193017,-0.20386 -0.290336,-0.59161 z M 66.67058,162.91938 c 0,-0.3638 0.06005,-0.51263 0.133452,-0.33072 0.0734,0.1819 0.0734,0.47955 0,0.66145 -0.0734,0.1819 -0.133452,0.0331 -0.133452,-0.33073 z m 8.976706,-0.52916 c -0.008,-0.21828 0.100871,-0.57547 0.241935,-0.79375 0.312558,-0.48365 0.312558,-0.0659 0,0.66146 -0.149935,0.34891 -0.232345,0.39398 -0.241935,0.13229 z m -7.588412,-1.65365 -0.504028,-0.59531 0.595312,0.50403 c 0.559447,0.47366 0.715762,0.68659 0.504028,0.68659 -0.05021,0 -0.318097,-0.26789 -0.595312,-0.59531 z m 7.853936,-0.55131 c -1.51187,-3.72204 -2.397326,-9.23796 -2.029787,-12.6445 l 0.18909,-1.75259 1.972311,-0.58551 c 2.388979,-0.70921 5.658206,-1.3115 7.186985,-1.32405 1.082071,-0.009 1.125974,-0.0417 1.164122,-0.86912 0.03735,-0.81016 0.04606,-0.81742 0.150523,-0.12549 0.06098,0.40392 -0.142428,1.46636 -0.452026,2.36097 -0.388206,1.12175 -0.511331,1.93182 -0.396726,2.61016 0.219282,1.29792 -0.529176,2.75606 -4.427682,8.62596 l -3.016522,4.54192 z m 68.76808,-6.92317 v -5.42396 h 1.05833 1.05834 v 2.38125 c 0,1.30969 0.0893,2.37437 0.19843,2.36595 0.10915,-0.008 1.0053,-1.07998 1.99146,-2.38125 1.78728,-2.35838 1.79681,-2.36595 2.97656,-2.36595 0.65095,0 1.18355,0.0654 1.18355,0.14533 0,0.0799 -0.77391,1.10387 -1.71979,2.27541 -0.94589,1.17154 -1.7198,2.24121 -1.7198,2.37703 0,0.13583 0.83344,1.48918 1.85209,3.00744 1.01864,1.51827 1.85208,2.82399 1.85208,2.9016 0,0.0776 -0.53155,0.14111 -1.18123,0.14111 h -1.18124 l -1.35778,-2.11667 c -0.74678,-1.16416 -1.44463,-2.11666 -1.55077,-2.11666 -1.09813,0.52362 -1.33036,1.60738 -1.34356,2.72903 v 1.5043 h -1.05834 -1.05833 z m 11.1125,4.66403 c 0,-0.67338 0.11301,-0.77812 0.99219,-0.91955 1.30322,-0.20966 2.06261,-0.77004 2.41557,-1.78255 0.25766,-0.73912 0.23995,-0.80316 -0.17111,-0.61866 -0.25219,0.11319 -1.02504,0.25577 -1.71744,0.31684 -1.13614,0.10022 -1.33392,0.0308 -2.0279,-0.71215 -0.43903,-0.46998 -0.84327,-1.2629 -0.94212,-1.84797 -0.76945,-4.55434 4.63634,-6.50327 6.74167,-2.43055 0.18215,0.35237 0.32594,1.54566 0.32105,2.66446 -0.009,2.07613 -0.45221,3.61629 -1.32252,4.59639 -0.63227,0.71204 -2.40456,1.48093 -3.42949,1.48786 -0.7719,0.005 -0.8599,-0.072 -0.8599,-0.75412 z m 3.37344,-5.0059 c 0.42079,-0.5353 0.41887,-1.85331 -0.004,-2.67323 -0.87277,-1.69264 -2.84037,-0.81698 -2.84037,1.26408 0,1.79654 1.82787,2.70213 2.84427,1.40915 z M 89.912138,142.0173 c -0.238467,-0.15411 -0.2711,-0.2581 -0.08176,-0.26053 0.173313,-0.002 0.388699,0.11501 0.478636,0.26053 0.203016,0.32849 0.111422,0.32849 -0.396876,0 z m -1.852083,-0.54478 c 0,-0.15411 0.119062,-0.20661 0.264583,-0.11668 0.145521,0.0899 0.264584,0.21603 0.264584,0.2802 0,0.0642 -0.119063,0.11668 -0.264584,0.11668 -0.145521,0 -0.264583,-0.12609 -0.264583,-0.2802 z m -1.418597,-0.38126 c -0.08376,-0.21828 -0.03697,-0.39688 0.103984,-0.39688 0.140954,0 0.256279,0.1786 0.256279,0.39688 0,0.21828 -0.04679,0.39687 -0.103984,0.39687 -0.05719,0 -0.172517,-0.17859 -0.256279,-0.39687 z m -2.020987,-0.79375 c 0,-0.3638 0.102552,-0.66146 0.227893,-0.66146 0.125342,0 0.170993,0.29766 0.101448,0.66146 -0.06954,0.3638 -0.172097,0.66146 -0.227893,0.66146 -0.0558,0 -0.101448,-0.29766 -0.101448,-0.66146 z m 1.024585,-0.0661 c -0.329108,-0.41964 -0.319749,-0.429 0.0999,-0.0999 0.254661,0.19972 0.46302,0.40808 0.46302,0.46302 0,0.21776 -0.217272,0.0776 -0.562915,-0.36313 z m 1.621249,-0.0661 c -0.238467,-0.15411 -0.271101,-0.2581 -0.08176,-0.26053 0.173313,-0.002 0.388699,0.11501 0.478636,0.26053 0.203016,0.32848 0.111422,0.32848 -0.396876,0 z"
           id="path17"
           sodipodi:nodetypes="ssssssssssssssscccccssssssssssscsssssssssssssssssssssssssscscsssssssssssscsssssssssssssssssscssssscscssssscsccccscsssssssscsssccccsssssssscscsccsccscssssssssssssssssssssssscss" /><path
           style="fill:#684d1f"
           d="m 86.009534,165.912 c 0.254661,-0.0666 0.67138,-0.0666 0.926042,0 0.254661,0.0666 0.0463,0.121 -0.463021,0.121 -0.509323,0 -0.717683,-0.0544 -0.463021,-0.121 z m -19.538499,-3.20503 c 0.04143,-0.56047 0.541493,-0.49531 0.61492,0.0801 l 0.06752,0.52917 -0.226674,-0.52917 c -0.178649,-0.41705 -0.253641,-0.44508 -0.35396,-0.13229 -0.07001,0.21828 -0.115822,0.24176 -0.10181,0.0522 z m 23.074149,-1.15892 c 0.07641,-0.12364 0.249771,-0.1563 0.385237,-0.0726 0.346176,0.21394 0.307196,0.29738 -0.138936,0.29738 -0.21188,0 -0.322715,-0.10116 -0.246301,-0.22481 z m -22.91638,-2.06825 c -0.238467,-0.15411 -0.271101,-0.2581 -0.08176,-0.26053 0.173313,-0.002 0.388699,0.11501 0.478636,0.26053 0.203016,0.32849 0.111422,0.32849 -0.396876,0 z m 80.433336,-4.06864 v 1e-5 z M 104.90283,152.974 c -0.0543,0.68635 0.0543,-0.68634 0,0 z m -14.566258,-4.67836 c -83.8800502,-131.078249 -83.8800502,-131.078249 0,0 z m 61.025048,-0.64723 c -144.9050982,-130.431019 -144.9050982,-130.431019 0,0 z m -67.110465,-4.11553 c -77.7946332,-126.315489 -77.7946332,-126.315489 0,0 z m 6.82956,-1.27213 c -0.0735,0.0166 0.676182,0.0278 0,0 z"
           id="path14"
           sodipodi:nodetypes="sssssscssssccsccscsssssccssssssss" /><path
           style="fill:#48391d"
           d="m 86.406409,167.76458 c -79.9498872,-150.547189 -79.9498872,-150.547189 0,0 z m 8.21862,-1.58585 c 0.190996,-0.0764 0.419199,-0.067 0.507118,0.0209 0.08792,0.0879 -0.06835,0.15045 -0.347266,0.13896 -0.308224,-0.0127 -0.370919,-0.0754 -0.159852,-0.15985 z m -22.109246,-0.7954 c -66.0592612,-148.165939 -66.0592612,-148.165939 0,0 z m 21.385994,-1.03028 c 0.0127,-0.30822 0.07539,-0.37091 0.159852,-0.15985 0.07643,0.191 0.06703,0.4192 -0.02089,0.50712 -0.08792,0.0879 -0.150453,-0.0684 -0.138964,-0.34727 z M 75.80094,162.38152 c -69.6134399,-145.388304 -69.6134399,-145.388304 0,0 z m 8.463918,-19.7633 c -77.8083362,-125.400809 -77.8083362,-125.400809 0,0 z"
           id="path13"
           sodipodi:nodetypes="sssssssccsssssssss" /><path
           style="opacity:0.987549;fill:#ef910b;fill-opacity:1;stroke:#6c6c6c;stroke-width:0"
           d="m 93.466523,142.48684 c 0.09406,0.0296 0.18356,0.0825 0.198872,0.11736 0.431735,0.98384 -2.907455,-0.97105 -0.198872,-0.11736 z"
           id="path26"
           sodipodi:nodetypes="sss" /><path
           style="opacity:0.987549;fill:#ef910b;fill-opacity:1;stroke:#6c6c6c;stroke-width:0"
           d="m 330.8737,477.07934 c -0.44906,-0.73651 -0.44906,-2.05962 0,-2.79613 0.4034,-0.66163 0.55261,-0.68106 0.9872,-0.12857 0.64289,0.8173 0.60547,2.53828 -0.0699,3.21363 -0.37928,0.37928 -0.54095,0.32836 -0.91732,-0.28893 z"
           id="path27"
           transform="matrix(0.26458333,0,0,0.26458333,6.4565218,17.217391)" /><path
           style="opacity:0.987549;fill:#ef910b;fill-opacity:1;stroke:#6c6c6c;stroke-width:0"
           d="m 330.95209,477.04825 c -0.53716,-0.81981 -0.2131,-3.14633 0.43825,-3.14633 0.0924,0 0.32369,0.24784 0.51392,0.55075 0.43245,0.68863 0.38109,2.14113 -0.0943,2.66641 -0.39919,0.4411 -0.52951,0.43034 -0.85789,-0.0708 z"
           id="path28"
           transform="matrix(0.26458333,0,0,0.26458333,6.4565218,17.217391)" /><path
           style="opacity:0.987549;fill:#ef910b;fill-opacity:1;stroke:#6c6c6c;stroke-width:0"
           d="m 330.28943,479.97997 c -0.54196,-0.64408 -0.50112,-1.06059 0.11094,-1.13151 0.5834,-0.0676 1.05046,0.57441 0.8882,1.2209 -0.1468,0.58493 -0.45494,0.55736 -0.99914,-0.0894 z"
           id="path29"
           transform="matrix(0.26458333,0,0,0.26458333,6.4565218,17.217391)" /><path
           style="opacity:0.987549;fill:#ef910b;fill-opacity:1;stroke:#6c6c6c;stroke-width:0"
           d="m 77.638713,168.0416 c -3.112679,-0.12934 -6.147248,-0.23703 -6.743417,-0.23931 -1.726897,-0.007 -0.614759,0.38379 1.330684,0.46705 1.95024,0.0835 5.095226,0.11726 8.914171,0.0957 3.456167,-0.0195 3.162469,-0.0466 -3.50109,-0.32349 z"
           id="path31" /><path
           style="opacity:0.987549;fill:#ef910b;fill-opacity:1;stroke:#6c6c6c;stroke-width:0"
           d="m 304.47269,470.29859 c -0.35177,-0.42387 -0.57608,-1.82806 -0.51708,-3.23704 0.0513,-1.22452 0.11856,-1.49837 0.45656,-1.85807 0.51256,-0.54545 2.00851,-0.71562 2.15757,-0.24542 0.0509,0.16052 0.41216,0.572 0.80282,0.91441 0.39066,0.34241 0.55777,0.56407 0.37136,0.49258 -0.1864,-0.0715 -0.69366,-0.16786 -1.12722,-0.21416 -0.99323,-0.10605 -1.15465,0.1425 -1.2744,1.9624 -0.09,1.36784 -0.32919,2.39938 -0.55636,2.39938 -0.0746,0 -0.21553,-0.0963 -0.31325,-0.21408 z"
           id="path32"
           transform="matrix(0.26458333,0,0,0.26458333,6.4565218,17.217391)" /><path
           style="opacity:0.987549;fill:#ef910b;fill-opacity:1;stroke:#6c6c6c;stroke-width:0"
           d=""
           id="path33"
           transform="matrix(0.26458333,0,0,0.26458333,6.4565218,17.217391)" /><path
           style="opacity:0.987549;fill:#ef910b;fill-opacity:1;stroke:#6c6c6c;stroke-width:0"
           d=""
           id="path35"
           transform="matrix(0.26458333,0,0,0.26458333,6.4565218,17.217391)" /><path
           style="opacity:0.987549;fill:#ef910b;fill-opacity:1;stroke:#6c6c6c;stroke-width:0"
           d="m 88.12998,140.83623 c -0.09588,-0.0982 -0.164288,-0.18856 -0.152022,-0.20083 0.01228,-0.0123 0.110993,0.0681 0.219398,0.17853 0.108403,0.11045 0.176813,0.20082 0.152022,0.20082 -0.02479,0 -0.123518,-0.0803 -0.219398,-0.17852 z"
           id="path36" /><path
           style="opacity:0.987549;fill:#ef910b;fill-opacity:1;stroke:#6c6c6c;stroke-width:0"
           d="m 302.54258,468.01133 c -0.23743,-0.25534 -0.86796,-1.06061 -1.40118,-1.78949 -0.53323,-0.72888 -1.21038,-1.47211 -1.50478,-1.65163 -0.58589,-0.35725 -1.53151,-0.42372 -2.2331,-0.15698 -0.63425,0.24114 -0.80142,0.0632 -0.49584,-0.52769 0.33448,-0.64682 0.17797,-1.14003 -0.40194,-1.26664 -0.78209,-0.17075 -0.90301,-0.23296 -0.79439,-0.4087 0.44982,-0.72783 3.15163,0.6925 5.18473,2.72559 0.87097,0.87097 2.35004,3.26794 2.14378,3.4742 -0.0361,0.0361 -0.25985,-0.14332 -0.49728,-0.39866 z"
           id="path37"
           transform="matrix(0.26458333,0,0,0.26458333,6.4565218,17.217391)" /><path
           style="opacity:0.987549;fill:#ef910b;fill-opacity:1;stroke:#6c6c6c;stroke-width:0"
           d="m 301.50157,466.55962 c -0.61287,-0.78487 -1.36296,-1.63626 -1.66686,-1.89198 -0.51787,-0.43576 -0.63058,-0.45994 -1.79541,-0.38519 -1.093,0.0702 -1.22898,0.047 -1.12776,-0.19189 0.4139,-0.97691 0.23139,-1.4344 -0.64191,-1.60906 -0.40179,-0.0804 -0.48784,-0.15579 -0.34299,-0.30064 0.45703,-0.45703 3.10476,1.05253 4.73177,2.69775 0.95355,0.96422 2.22461,2.84091 2.04546,3.02006 -0.0484,0.0484 -0.58943,-0.55418 -1.2023,-1.33905 z"
           id="path38"
           transform="matrix(0.26458333,0,0,0.26458333,6.4565218,17.217391)" /><path
           style="opacity:0.987549;fill:#ef910b;fill-opacity:1;stroke:#6c6c6c;stroke-width:0"
           d=""
           id="path39"
           transform="matrix(0.26458333,0,0,0.26458333,6.4565218,17.217391)" /><path
           style="opacity:0.987549;fill:#ef910b;fill-opacity:1;stroke:#6c6c6c;stroke-width:0"
           d="m 239.87419,552.73104 c 0,-0.62129 -0.61929,-1.5317 -2.67673,-3.93506 -0.92152,-1.07646 -1.72241,-2.14412 -1.77975,-2.37259 -0.0573,-0.22847 -0.88952,-1.18362 -1.84929,-2.12257 -1.77948,-1.74088 -3.4048,-3.86307 -3.6223,-4.72968 -0.10661,-0.42476 -0.0828,-0.46756 0.20097,-0.36106 0.86387,0.32421 2.27602,1.32919 3.48036,2.47684 1.1062,1.05414 1.33362,1.36059 1.33303,1.7963 -7.9e-4,0.58929 0.7626,1.75799 1.43693,2.19982 0.68354,0.44788 1.93987,2.24675 2.14891,3.07691 0.20668,0.82079 0.99999,1.96988 1.91401,2.77241 0.64003,0.56195 0.66579,0.9083 0.10153,1.36521 -0.53199,0.43078 -0.68767,0.39307 -0.68767,-0.16653 z m -5.4228,-9.34359 c 0,-0.53507 -2.70854,-2.94612 -2.99162,-2.66303 -0.14999,0.14999 0.29256,0.77348 1.39169,1.96067 0.9736,1.0516 1.59993,1.32656 1.59993,0.70236 z"
           id="path40"
           transform="matrix(0.26458333,0,0,0.26458333,6.4565218,17.217391)" /><path
           style="opacity:0.987549;fill:#ef910b;fill-opacity:1;stroke:#6c6c6c;stroke-width:0"
           d="m 239.98716,552.92794 c -0.0621,-0.0621 -0.11297,-0.28688 -0.11297,-0.49942 0,-0.39681 -0.92715,-1.7129 -2.5756,-3.65608 -0.51444,-0.60642 -1.24124,-1.55303 -1.6151,-2.10357 -0.37387,-0.55054 -1.48742,-1.86362 -2.47455,-2.91794 -2.29945,-2.45595 -3.6447,-4.43648 -3.01343,-4.43648 0.65398,0 4.26595,3.07455 4.57169,3.89147 0.10592,0.283 0.27836,0.74399 0.38321,1.02442 0.10485,0.28043 0.71436,1.04621 1.35447,1.70174 0.90554,0.92735 1.33565,1.55227 1.93802,2.81576 0.4976,1.04375 1.07319,1.94005 1.61113,2.50884 0.46031,0.48671 0.83693,0.96107 0.83693,1.05413 0,0.16849 -0.54254,0.7301 -0.70531,0.7301 -0.047,0 -0.13635,-0.0508 -0.19849,-0.11297 z m -5.53577,-9.56403 c 0,-0.38953 -1.66129,-2.11137 -2.42214,-2.51043 -1.08155,-0.56726 -0.70345,0.35583 0.76045,1.85653 1.0264,1.0522 1.66169,1.3022 1.66169,0.6539 z"
           id="path41"
           transform="matrix(0.26458333,0,0,0.26458333,6.4565218,17.217391)" /><path
           style="opacity:0.987549;fill:#ef910b;fill-opacity:1;stroke:#6c6c6c;stroke-width:0"
           d=""
           id="path42"
           transform="matrix(0.26458333,0,0,0.26458333,6.4565218,17.217391)" /><path
           style="opacity:0.987549;fill:#ef910b;fill-opacity:1;stroke:#6c6c6c;stroke-width:0"
           d=""
           id="path43"
           transform="matrix(0.26458333,0,0,0.26458333,6.4565218,17.217391)" /><path
           style="opacity:0.987549;fill:#ef910b;fill-opacity:1;stroke:#6c6c6c;stroke-width:0"
           d="m 235.8561,566.76615 c -1.076,-0.6171 -2.14246,-1.69898 -2.59379,-2.63131 -0.36602,-0.7561 -0.44973,-1.77349 -0.14592,-1.77349 0.30857,0 2.99308,2.70951 3.56031,3.59347 0.46793,0.7292 0.55572,1.32369 0.19485,1.31935 -0.0728,-8.7e-4 -0.52978,-0.22948 -1.01545,-0.50802 z"
           id="path44"
           transform="matrix(0.26458333,0,0,0.26458333,6.4565218,17.217391)" /><path
           style="opacity:0.987549;fill:#ef910b;fill-opacity:1;stroke:#6c6c6c;stroke-width:0"
           d="m 235.97655,566.75066 c -0.86371,-0.51604 -2.18034,-1.83536 -2.55563,-2.56084 -0.32329,-0.62498 -0.44446,-1.65901 -0.19439,-1.65901 0.21294,0 7.14212,5.88178 7.73403,6.50559 3.79514,3.9997 -3.8883,-1.63108 -4.98401,-2.28574 z"
           id="path45"
           transform="matrix(0.26458333,0,0,0.26458333,6.4565218,17.217391)"
           sodipodi:nodetypes="sssss" /><path
           style="opacity:0.987549;fill:#ef910b;fill-opacity:1;stroke:#6c6c6c;stroke-width:0"
           d="m 227.67885,554.91614 c -0.2636,-0.49255 -0.21358,-1.01156 0.17483,-1.8139 0.40546,-0.83756 0.94863,-1.10843 1.28909,-0.64283 0.12361,0.16905 0.22307,0.46436 0.22102,0.65626 -0.006,0.55101 -0.61147,1.74387 -0.98751,1.94512 -0.45603,0.24406 -0.49357,0.23628 -0.69743,-0.14465 z"
           id="path46"
           transform="matrix(0.26458333,0,0,0.26458333,6.4565218,17.217391)" /><path
           style="opacity:0.987549;fill:#ef910b;fill-opacity:1;stroke:#6c6c6c;stroke-width:0"
           d="m 67.201129,164.65932 c -0.150172,0.0167 -0.453096,-0.42397 -0.395084,-0.57471 0.05159,-0.13405 0.132565,-0.129 0.278515,0.0174 0.206381,0.20703 0.275936,0.53957 0.116564,0.55728 z"
           id="path47"
           inkscape:transform-center-x="0.12681806"
           inkscape:transform-center-y="-0.60238581" /><path
           style="opacity:0.987549;fill:#ef910b;fill-opacity:1;stroke:#6c6c6c;stroke-width:0"
           d="m 228.60237,558.12065 c -0.32393,-0.52413 0.67973,-2.02941 1.35313,-2.02941 0.61028,0 0.39215,1.09173 -0.35681,1.78585 -0.47858,0.44352 -0.821,0.52723 -0.99632,0.24356 z"
           id="path48"
           transform="matrix(0.26458333,0,0,0.26458333,6.4565218,17.217391)" /><path
           style="opacity:0.987549;fill:#ef910b;fill-opacity:1;stroke:#6c6c6c;stroke-width:0"
           d="m 228.68966,557.68418 c 0,-0.56241 1.11192,-1.73504 1.38566,-1.46131 0.25541,0.25541 0.0549,0.91351 -0.44143,1.4491 -0.54342,0.58636 -0.94423,0.59154 -0.94423,0.0122 z"
           id="path49"
           transform="matrix(0.26458333,0,0,0.26458333,6.4565218,17.217391)" /><path
           style="opacity:0.987549;fill:#ef910b;fill-opacity:1;stroke:#6c6c6c;stroke-width:0"
           d=""
           id="path53"
           transform="matrix(0.26458333,0,0,0.26458333,6.4565218,17.217391)" /><path
           style="opacity:0.987549;fill:#ef910b;fill-opacity:1;stroke:#6c6c6c;stroke-width:0"
           d=""
           id="path60"
           transform="matrix(0.26458333,0,0,0.26458333,6.4565218,17.217391)" /><path
           style="opacity:0.987549;fill:#ef910b;fill-opacity:1;stroke:#6c6c6c;stroke-width:0"
           d=""
           id="path61"
           transform="matrix(0.26458333,0,0,0.26458333,6.4565218,17.217391)" /><path
           style="opacity:0.987549;fill:#ef910b;fill-opacity:1;stroke:#6c6c6c;stroke-width:0"
           d=""
           id="path62"
           transform="matrix(0.26458333,0,0,0.26458333,6.4565218,17.217391)" /><path
           style="opacity:0.987549;fill:#ef910b;fill-opacity:1;stroke:#6c6c6c;stroke-width:0"
           d=""
           id="path63"
           transform="matrix(0.26458333,0,0,0.26458333,6.4565218,17.217391)" /><path
           style="opacity:0.987549;fill:#ef910b;fill-opacity:1;stroke:#6c6c6c;stroke-width:0"
           d=""
           id="path64"
           transform="matrix(0.26458333,0,0,0.26458333,6.4565218,17.217391)" /><path
           style="opacity:0.987549;fill:#ef910b;fill-opacity:1;stroke:#6c6c6c;stroke-width:0"
           d=""
           id="path67"
           transform="matrix(0.26458333,0,0,0.26458333,6.4565218,17.217391)" /><path
           style="opacity:0.987549;fill:#ef910b;fill-opacity:1;stroke:#6c6c6c;stroke-width:0"
           d=""
           id="path68"
           transform="matrix(0.26458333,0,0,0.26458333,6.4565218,17.217391)" /><path
           style="opacity:0.987549;fill:#ef910b;fill-opacity:1;stroke:#6c6c6c;stroke-width:0"
           d=""
           id="path69"
           transform="matrix(0.26458333,0,0,0.26458333,6.4565218,17.217391)" /><path
           style="opacity:0.987549;fill:#ef910b;fill-opacity:1;stroke:#6c6c6c;stroke-width:0"
           d=""
           id="path70"
           transform="matrix(0.26458333,0,0,0.26458333,6.4565218,17.217391)" /><path
           style="opacity:0.987549;fill:#ef910b;fill-opacity:1;stroke:#6c6c6c;stroke-width:0"
           d=""
           id="path71"
           transform="matrix(0.26458333,0,0,0.26458333,6.4565218,17.217391)" /><path
           style="opacity:0.987549;fill:#ef910b;fill-opacity:1;stroke:#6c6c6c;stroke-width:0"
           d="m 331.04511,562.34043 c -1.4061,-0.56069 -1.57101,-1.99919 -0.35533,-3.09938 0.48819,-0.4418 0.57506,-0.28011 0.34354,0.63935 -0.31227,1.24014 -0.20379,1.34382 1.26224,1.20644 1.53402,-0.14375 1.96925,-0.029 1.96925,0.519 0,0.28028 -0.15641,0.48876 -0.49997,0.66643 -0.55882,0.28897 -2.07094,0.32687 -2.71973,0.0682 z"
           id="path72"
           transform="matrix(0.26458333,0,0,0.26458333,6.4565218,17.217391)" /><path
           style="opacity:0.987549;fill:#ef910b;fill-opacity:1;stroke:#6c6c6c;stroke-width:0"
           d="m 330.54963,561.92263 c -0.72116,-0.60682 -0.72985,-1.52801 -0.0218,-2.31237 l 0.49958,-0.55343 -0.0335,1.01678 -0.0336,1.01677 1.55176,0.0485 c 1.69962,0.0531 2.03387,0.26349 1.40999,0.88737 -0.27362,0.27361 -0.56584,0.33508 -1.59305,0.33508 -1.10611,0 -1.32091,-0.053 -1.77936,-0.43872 z"
           id="path73"
           transform="matrix(0.26458333,0,0,0.26458333,6.4565218,17.217391)" /><path
           style="opacity:0.987549;fill:#ef910b;fill-opacity:1;stroke:#6c6c6c;stroke-width:0"
           d=""
           id="path74"
           transform="matrix(0.26458333,0,0,0.26458333,6.4565218,17.217391)" /><path
           style="opacity:0.987549;fill:#ef910b;fill-opacity:1;stroke:#6c6c6c;stroke-width:0"
           d=""
           id="path75"
           transform="matrix(0.26458333,0,0,0.26458333,6.4565218,17.217391)" /><path
           style="opacity:0.987549;fill:#ef910b;fill-opacity:1;stroke:#6c6c6c;stroke-width:0"
           d=""
           id="path76"
           transform="matrix(0.26458333,0,0,0.26458333,6.4565218,17.217391)" /><path
           style="opacity:0.987549;fill:#ef910b;fill-opacity:1;stroke:#6c6c6c;stroke-width:0"
           d=""
           id="path77"
           transform="matrix(0.26458333,0,0,0.26458333,6.4565218,17.217391)" /><path
           style="opacity:0.987549;fill:#ef910b;fill-opacity:1;stroke:#6c6c6c;stroke-width:0"
           d=""
           id="path78"
           transform="matrix(0.26458333,0,0,0.26458333,6.4565218,17.217391)" /><path
           style="opacity:0.987549;fill:#ef910b;fill-opacity:1;stroke:#6c6c6c;stroke-width:0"
           d=""
           id="path79"
           transform="matrix(0.26458333,0,0,0.26458333,6.4565218,17.217391)" /><path
           style="opacity:0.987549;fill:#ef910b;fill-opacity:1;stroke:#6c6c6c;stroke-width:0"
           d=""
           id="path80"
           transform="matrix(0.26458333,0,0,0.26458333,6.4565218,17.217391)" /><path
           style="opacity:0.987549;fill:#ef910b;fill-opacity:1;stroke:#6c6c6c;stroke-width:0"
           d=""
           id="path81"
           transform="matrix(0.26458333,0,0,0.26458333,6.4565218,17.217391)" /><path
           style="opacity:0.987549;fill:#ef910b;fill-opacity:1;stroke:#6c6c6c;stroke-width:0"
           d=""
           id="path82"
           transform="matrix(0.26458333,0,0,0.26458333,6.4565218,17.217391)" /><path
           style="opacity:0.987549;fill:#ef910b;fill-opacity:1;stroke:#6c6c6c;stroke-width:0"
           d=""
           id="path83"
           transform="matrix(0.26458333,0,0,0.26458333,6.4565218,17.217391)" /><path
           style="opacity:0.987549;fill:#ef910b;fill-opacity:1;stroke:#6c6c6c;stroke-width:0"
           d=""
           id="path84"
           transform="matrix(0.26458333,0,0,0.26458333,6.4565218,17.217391)" /><path
           style="opacity:0.987549;fill:#ef910b;fill-opacity:1;stroke:#6c6c6c;stroke-width:0"
           d="m 328.53719,557.43638 c -0.10662,-0.28043 -0.0683,-0.7295 0.0886,-1.03925 0.18457,-0.36424 0.72464,-1.04575 1.26524,-1.59659 0.46322,-0.47201 2.53934,-2.32794 2.56678,-2.29456 0.0467,0.0568 -1.57558,2.47261 -1.68854,2.51439 -0.0818,0.0303 -0.15311,0.13873 -0.20044,0.30477 -0.0951,0.33346 -0.80663,1.34335 -1.3109,1.86051 -0.43539,0.44651 -0.62171,0.51133 -0.72079,0.25073 z"
           id="path85"
           transform="matrix(0.26458333,0,0,0.26458333,6.4565218,17.217391)" /><path
           style="opacity:0.987549;fill:#ef910b;fill-opacity:1;stroke:#6c6c6c;stroke-width:0"
           d="m 330.65125,557.25018 c -0.18706,-0.42058 -0.1067,-2.1765 0.0996,-2.1765 0.15327,0 0.37823,0.49541 0.48012,1.05733 0.15282,0.84271 -0.30747,1.73129 -0.57972,1.11917 z"
           id="path86"
           transform="matrix(0.26458333,0,0,0.26458333,6.4565218,17.217391)" /><path
           style="opacity:0.987549;fill:#ef910b;fill-opacity:1;stroke:#6c6c6c;stroke-width:0"
           d="m 330.69801,557.2479 c -0.15908,-0.33715 -0.13437,-1.94303 0.0324,-2.10908 0.0194,-0.0194 0.0871,0.0287 0.15042,0.10675 0.31825,0.39257 0.43635,1.5241 0.2009,1.92491 -0.15609,0.26569 -0.28287,0.29127 -0.38377,0.0774 z"
           id="path87"
           transform="matrix(0.26458333,0,0,0.26458333,6.4565218,17.217391)" /><path
           style="opacity:0.987549;fill:#ef910b;fill-opacity:1;stroke:#6c6c6c;stroke-width:0"
           d="m 315.12687,548.56409 c -0.50816,-0.2576 -0.81026,-1.23986 -0.5986,-1.94632 l 0.0694,-0.23163 h 0.52277 0.52277 l 0.22249,0.24628 c 0.28884,0.31971 0.5091,0.79834 0.50984,1.10791 10e-4,0.61827 -0.71788,1.09283 -1.24867,0.82376 z"
           id="path88"
           transform="matrix(0.26458333,0,0,0.26458333,6.4565218,17.217391)"
           sodipodi:nodetypes="sscccscs" /><path
           style="opacity:0.987549;fill:#ef910b;fill-opacity:1;stroke:#6c6c6c;stroke-width:0"
           d="m 315.06917,548.48147 c -0.13704,-0.0835 -0.25527,-0.24227 -0.38164,-0.51231 -0.16974,-0.36272 -0.18127,-0.42932 -0.15813,-0.91325 0.0137,-0.28709 0.0455,-0.55524 0.0706,-0.59588 0.03,-0.0485 0.20907,-0.0739 0.52229,-0.0739 0.46155,0 0.4822,0.006 0.65325,0.19472 0.49182,0.54216 0.68672,1.25713 0.43528,1.59671 -0.30312,0.40937 -0.76641,0.53269 -1.14167,0.3039 z"
           id="path89"
           transform="matrix(0.26458333,0,0,0.26458333,6.4565218,17.217391)"
           sodipodi:nodetypes="ssssscsss" /><path
           style="opacity:0.987549;fill:#ef910b;fill-opacity:1;stroke:#6c6c6c;stroke-width:0"
           d="m 314.42891,546.24008 c -0.45026,-0.16738 -0.56813,-0.48246 -0.29979,-0.80137 0.20488,-0.24348 0.59006,-0.39017 0.90178,-0.34342 0.40354,0.0605 1.28531,0.7035 1.28531,0.93726 0,0.15636 -0.31962,0.2412 -1.01854,0.27036 -0.29535,0.0634 -0.58333,-0.0367 -0.86876,-0.0628 z"
           id="path90"
           transform="matrix(0.26458333,0,0,0.26458333,6.4565218,17.217391)"
           sodipodi:nodetypes="ssssss" /><path
           style="opacity:0.987549;fill:#ef910b;fill-opacity:1;stroke:#6c6c6c;stroke-width:0"
           d="m 314.348,546.1684 c -0.74015,-0.37838 0.0517,-1.37663 1.03052,-0.89766 0.36537,0.17876 0.87774,0.60429 0.87774,0.72898 0,0.16158 -0.26957,0.22992 -0.98858,0.25063 -0.31691,0.0804 -0.62127,-0.0479 -0.91968,-0.082 z"
           id="path91"
           transform="matrix(0.26458333,0,0,0.26458333,6.4565218,17.217391)"
           sodipodi:nodetypes="sssss" /><path
           style="opacity:0.987549;fill:#ef910b;fill-opacity:1;stroke:#6c6c6c;stroke-width:0"
           d="m 315.65715,549.69261 c 0,0 0.0841,-0.69196 0.19509,-0.65555 0.0588,0.0193 0.71849,0.80937 0.60898,1.39328 -0.0415,0.2215 -0.32485,0.59292 -0.32485,0.59292 -0.20224,1.11387 -0.47922,-0.64821 -0.47922,-1.33065 z"
           id="path92"
           transform="matrix(0.26458333,0,0,0.26458333,6.4565218,17.217391)"
           sodipodi:nodetypes="ssass" /><path
           style="opacity:0.987549;fill:#ef910b;fill-opacity:1;stroke:#6c6c6c;stroke-width:0"
           d=""
           id="path93"
           transform="matrix(0.26458333,0,0,0.26458333,6.4565218,17.217391)" /><path
           style="opacity:0.987549;fill:#ef910b;fill-opacity:1;stroke:#6c6c6c;stroke-width:0"
           d="m 315.71707,552.41874 c 0,-5.27681 2.02491,0.13855 0.0551,0.13855 -0.0523,0 -0.0554,-0.13855 -0.0551,-0.13855 z"
           id="path94"
           transform="matrix(0.26458333,0,0,0.26458333,6.4565218,17.217391)"
           sodipodi:nodetypes="sss" /><path
           style="opacity:0.987549;fill:#ef910b;fill-opacity:1;stroke:#6c6c6c;stroke-width:0"
           d="m 91.147036,166.93423 c -0.03604,-0.009 -0.19863,-0.3087 -0.247783,-0.45708 -0.04863,-0.14687 -0.02167,-0.34806 0.05143,-0.38386 0.147262,-0.0721 0.387342,0.0923 0.306893,0.56831 -0.03602,0.21302 -0.0647,0.28376 -0.110565,0.27259 z"
           id="path95"
           sodipodi:nodetypes="cssscc" /><path
           style="opacity:0.987549;fill:#ef910b;fill-opacity:1;stroke:#6c6c6c;stroke-width:0"
           d="m 322.62072,569.13793 c -0.0775,-0.0825 -0.14826,-0.26974 -0.18117,-0.4796 -0.0723,-0.46142 -0.19019,-0.5833 -0.56394,-0.5833 -0.22033,0 -0.39221,0.0523 -0.68875,0.2097 -0.63515,0.33706 -0.68466,0.27916 -0.34714,-0.40595 0.22826,-0.46333 0.26086,-0.72258 0.11675,-0.92832 -0.13761,-0.19647 -0.30303,-0.26476 -0.76383,-0.31534 -0.47008,-0.0516 -0.61609,-0.15027 -0.559,-0.37774 0.0961,-0.38298 0.81423,-0.31218 1.78927,0.17643 0.76726,0.38448 1.3487,0.79915 1.82729,1.30317 0.4764,0.50173 0.59646,0.78252 0.46703,1.09229 -0.16254,0.38901 -0.84148,0.58013 -1.09651,0.30866 z"
           id="path99"
           transform="matrix(0.26458333,0,0,0.26458333,6.4565218,17.217391)" /><path
           style="opacity:0.987549;fill:#ef910b;fill-opacity:1;stroke:#6c6c6c;stroke-width:0"
           d="m 322.652,569.10855 c -0.0515,-0.0577 -0.12466,-0.22618 -0.16264,-0.37447 -0.11325,-0.44217 -0.12585,-0.47477 -0.21991,-0.56883 -0.15602,-0.15602 -0.65875,-0.11473 -1.09061,0.0896 -0.20891,0.0988 -0.40438,0.17969 -0.43437,0.17969 -0.0956,0 -0.0594,-0.15867 0.12516,-0.54882 0.18638,-0.39398 0.22863,-0.74581 0.11505,-0.95804 -0.0819,-0.15297 -0.35247,-0.26511 -0.77406,-0.32077 -0.42407,-0.056 -0.53923,-0.1199 -0.53923,-0.29932 0,-0.16937 0.15362,-0.26961 0.41318,-0.26961 0.49237,0 1.70534,0.54863 2.44915,1.10777 0.51606,0.38793 1.07397,1.00501 1.15591,1.27851 0.12757,0.42578 -0.19969,0.78917 -0.7107,0.78917 -0.14664,0 -0.26812,-0.039 -0.32693,-0.10485 z"
           id="path100"
           transform="matrix(0.26458333,0,0,0.26458333,6.4565218,17.217391)" /><path
           style="opacity:0.987549;fill:#ef910b;fill-opacity:1;stroke:#6c6c6c;stroke-width:0"
           d="m 322.65165,569.10855 c -0.0517,-0.0577 -0.13483,-0.2624 -0.1848,-0.45495 -0.12513,-0.48209 -0.22568,-0.57858 -0.6029,-0.57852 -0.21472,3e-5 -0.41793,0.0533 -0.68511,0.17974 -0.20891,0.0988 -0.40752,0.17969 -0.44136,0.17969 -0.0804,0 -0.0344,-0.18679 0.1551,-0.62909 0.19054,-0.44481 0.20054,-0.73934 0.0312,-0.92105 -0.15548,-0.16689 -0.29283,-0.22018 -0.71321,-0.27669 -0.42453,-0.0571 -0.53923,-0.12091 -0.53923,-0.30012 0,-0.29956 0.36025,-0.34402 1.03957,-0.1283 0.8843,0.28082 1.88637,0.92063 2.54557,1.62531 0.56001,0.59866 0.61748,1.01955 0.17596,1.28875 -0.24827,0.15137 -0.65182,0.15924 -0.78084,0.0152 z"
           id="path101"
           transform="matrix(0.26458333,0,0,0.26458333,6.4565218,17.217391)" /><path
           style="opacity:0.987549;fill:#ef910b;fill-opacity:1;stroke:#6c6c6c;stroke-width:0"
           d="m 326.08223,570.58402 c -0.74742,-0.29804 -0.81081,-1.41396 -0.0995,-1.7515 0.5004,-0.23746 1.03313,-0.0551 1.28276,0.43899 0.16954,0.33561 0.16954,0.50672 0,0.84263 -0.22095,0.43775 -0.74348,0.64525 -1.18327,0.46988 z"
           id="path102"
           transform="matrix(0.26458333,0,0,0.26458333,6.4565218,17.217391)" /><path
           style="opacity:0.987549;fill:#ef910b;fill-opacity:1;stroke:#6c6c6c;stroke-width:0"
           d="m 325.9049,570.4345 c -0.2563,-0.21566 -0.36197,-0.44463 -0.36171,-0.78375 3.8e-4,-0.48644 0.26962,-0.79136 0.78073,-0.88419 0.4594,-0.0834 1.01306,0.41865 1.01549,0.92088 0.001,0.28285 -0.24964,0.68735 -0.50032,0.80631 -0.3219,0.15275 -0.71162,0.12803 -0.93419,-0.0593 z"
           id="path103"
           transform="matrix(0.26458333,0,0,0.26458333,6.4565218,17.217391)" /><path
           style="opacity:0.987549;fill:#ef910b;fill-opacity:1;stroke:#6c6c6c;stroke-width:0"
           d="m 325.9049,570.4345 c -0.2563,-0.21566 -0.36197,-0.44463 -0.36171,-0.78375 3.8e-4,-0.48644 0.26962,-0.79136 0.78073,-0.88419 0.4594,-0.0834 1.01306,0.41865 1.01549,0.92088 0.001,0.28285 -0.24964,0.68735 -0.50032,0.80631 -0.3219,0.15275 -0.71162,0.12803 -0.93419,-0.0593 z"
           id="path104"
           transform="matrix(0.26458333,0,0,0.26458333,6.4565218,17.217391)" /><path
           style="opacity:0.987549;fill:#ef910b;fill-opacity:1;stroke:#6c6c6c;stroke-width:0"
           d=""
           id="path105"
           transform="matrix(0.26458333,0,0,0.26458333,6.4565218,17.217391)" /><path
           style="opacity:0.987549;fill:#ef910b;fill-opacity:1;stroke:#6c6c6c;stroke-width:0"
           d=""
           id="path106"
           transform="matrix(0.26458333,0,0,0.26458333,6.4565218,17.217391)" /><path
           style="opacity:0.987549;fill:#ef910b;fill-opacity:1;stroke:#6c6c6c;stroke-width:0"
           d="m 334.21927,562.82158 c 0.0433,-0.0173 0.0949,-0.0152 0.11484,0.005 0.0199,0.0199 -0.0155,0.0341 -0.0786,0.0315 -0.0698,-0.003 -0.084,-0.0171 -0.0362,-0.0362 z"
           id="path107"
           transform="matrix(0.26458333,0,0,0.26458333,6.4565218,17.217391)" /><path
           style="opacity:0.987549;fill:#ef910b;fill-opacity:1;stroke:#6c6c6c;stroke-width:0"
           d=""
           id="path108"
           transform="matrix(0.26458333,0,0,0.26458333,6.4565218,17.217391)" /><path
           style="opacity:0.987549;fill:#ef910b;fill-opacity:1;stroke:#6c6c6c;stroke-width:0"
           d="m 333.3318,563.54352 c -0.28073,-0.0537 -0.53923,-0.15097 -0.53923,-0.20295 0,-0.0967 0.26804,-0.24216 0.67549,-0.36663 0.76743,-0.23444 1.69111,-0.0795 1.69111,0.28367 0,0.19522 -0.30454,0.28504 -1.01853,0.30039 -0.36248,0.008 -0.72646,10e-4 -0.80884,-0.0145 z"
           id="path109"
           transform="matrix(0.26458333,0,0,0.26458333,6.4565218,17.217391)" /><path
           style="opacity:0.987549;fill:#ef910b;fill-opacity:1;stroke:#6c6c6c;stroke-width:0"
           d="m 333.11007,563.45865 c -0.30725,-0.0942 -0.28914,-0.16885 0.0826,-0.34031 0.66647,-0.30744 1.85969,-0.23641 1.92504,0.11459 0.0345,0.18541 -0.2235,0.25229 -1.03696,0.26876 -0.42838,0.009 -0.86518,-0.0107 -0.97065,-0.043 z"
           id="path110"
           transform="matrix(0.26458333,0,0,0.26458333,6.4565218,17.217391)" /><path
           style="opacity:0.987549;fill:#ef910b;fill-opacity:1;stroke:#6c6c6c;stroke-width:0"
           d="m 307.66535,567.87963 c -0.0203,-0.0738 -0.0646,-0.53687 -0.0986,-1.0291 -0.1328,-1.92438 -0.61807,-3.31069 -1.52885,-4.36754 -0.68026,-0.78937 -0.60424,-0.76984 0.63217,0.16242 0.70275,0.52988 1.30593,0.84719 1.49586,0.78691 0.18666,-0.0592 0.24236,-0.22045 0.29818,-0.86307 0.0657,-0.75605 0.17449,-0.98221 0.36319,-0.75484 0.11022,0.1328 0.0421,1.57154 -0.11634,2.45608 -0.24351,1.35974 -0.8316,3.6338 -0.9603,3.71334 -0.0266,0.0165 -0.065,-0.0304 -0.0853,-0.1042 z"
           id="path111"
           transform="matrix(0.26458333,0,0,0.26458333,6.4565218,17.217391)" /><path
           style="opacity:0.987549;fill:#ef910b;fill-opacity:1;stroke:#6c6c6c;stroke-width:0"
           d="m 307.66038,567.55078 c -0.14017,-3.93164 -2.0097,-5.41931 -1.91784,-5.51705 0.26275,-0.2806 2.4488,2.83908 2.75212,0.53037 0.0906,-0.68951 0.1425,-0.83036 0.27566,-0.74806 0.43672,0.27002 -0.78924,6.13916 -1.04558,6.13916 -0.024,0 -0.0656,-0.40442 -0.0644,-0.40442 z"
           id="path112"
           transform="matrix(0.26458333,0,0,0.26458333,6.4565218,17.217391)"
           sodipodi:nodetypes="ssssss" /><path
           style="opacity:0.987549;fill:#ef910b;fill-opacity:1;stroke:#6c6c6c;stroke-width:0"
           d="m 301.24782,562.3836 c -0.62454,-0.048 -0.92866,-0.1078 -0.92866,-0.18259 0,-0.0791 0.54438,-0.22542 1.12947,-0.30364 1.00234,-0.13399 2.97222,0.0495 3.04787,0.28395 0.0639,0.19815 -1.79596,0.31396 -3.24868,0.20228 z"
           id="path113"
           transform="matrix(0.26458333,0,0,0.26458333,6.4565218,17.217391)" /><path
           style="opacity:0.987549;fill:#ef910b;fill-opacity:1;stroke:#6c6c6c;stroke-width:0"
           d="m 307.66413,563.22488 c -0.18491,-0.0973 -0.43704,-0.25911 -0.56029,-0.35967 -0.33818,-0.2759 -1.58219,-1.14107 -1.64071,-1.14107 -0.0706,0 -0.0646,0.10452 0.009,0.14978 0.13431,0.083 0.0471,0.13767 -0.1348,0.0845 -0.54889,-0.16059 -1.3472,-0.24717 -2.7371,-0.29688 -2.1184,-0.0758 -3.12081,-0.22467 -3.1185,-0.46328 0.003,-0.29653 1.06293,-2.00464 1.77567,-2.86122 0.29151,-0.35035 0.68488,-0.8533 0.87416,-1.11768 0.3269,-0.45662 0.38603,-0.6229 0.19549,-0.54978 -0.0471,0.0181 0.12684,-0.38079 0.38653,-0.88635 0.94109,-1.83214 1.24477,-3.15105 0.99109,-4.30435 -0.18518,-0.84187 -0.0664,-1.63608 0.25675,-1.7172 0.12254,-0.0308 0.18181,-0.004 0.29438,0.13536 0.51686,0.63754 1.87136,4.09522 2.94325,7.51333 1.01288,3.22994 1.33607,4.33842 1.3,4.45872 -0.0206,0.0686 -0.0602,0.38914 -0.0881,0.71234 -0.0365,0.42294 -0.0802,0.62024 -0.15599,0.70399 -0.13908,0.15369 -0.19402,0.14806 -0.59049,-0.0605 z"
           id="path121"
           transform="matrix(0.26458333,0,0,0.26458333,6.4565218,17.217391)" /><path
           style="opacity:0.987549;fill:#ef910b;fill-opacity:1;stroke:#6c6c6c;stroke-width:0"
           d="m 307.71854,563.26066 c -0.16476,-0.077 -0.38045,-0.20811 -0.47931,-0.29147 -0.34424,-0.29028 -1.66988,-1.18514 -1.75567,-1.18514 -0.0706,0 -0.0725,0.0167 -0.0106,0.0913 0.10538,0.12698 0.0454,0.1631 -0.1484,0.0894 -1.13397,-0.43112 -5.84421,-0.21697 -5.84421,-0.75394 0,-0.26933 1.05734,-2.02021 1.64523,-2.72438 1.04095,-1.24686 1.4907,-1.92805 1.19906,-1.81614 -0.0537,0.0206 0.0925,-0.32049 0.35391,-0.8257 0.96118,-1.85763 1.27289,-3.17393 1.02678,-4.33585 -0.18571,-0.87674 -0.0704,-1.66528 0.25545,-1.74706 0.11667,-0.0293 0.17991,-0.005 0.26541,0.10017 0.3342,0.41272 0.93083,1.73707 1.64136,3.64337 0.95693,2.5674 2.69698,8.12554 2.62785,8.39401 -0.0219,0.0849 -0.0617,0.40584 -0.0886,0.71314 -0.0345,0.39449 -0.0795,0.59263 -0.15316,0.67404 -0.13228,0.14616 -0.17095,0.14429 -0.53513,-0.0258 z"
           id="path122"
           transform="matrix(0.26458333,0,0,0.26458333,6.4565218,17.217391)"
           sodipodi:nodetypes="ssssssssssscssssss" /><path
           style="opacity:0.987549;fill:#ef910b;fill-opacity:1;stroke:#6c6c6c;stroke-width:0"
           d="m 299.5203,559.58721 c -0.022,-0.022 -0.0399,-0.1147 -0.0399,-0.20606 0,-0.19619 0.25338,-0.50574 0.89872,-1.09798 0.47741,-0.43811 1.85563,-1.52877 1.93433,-1.53073 0.24098,-0.006 -1.65261,2.26172 -2.25788,2.70397 -0.22226,0.16241 -0.44836,0.21766 -0.53523,0.1308 z"
           id="path123"
           transform="matrix(0.26458333,0,0,0.26458333,6.4565218,17.217391)" /><path
           style="opacity:0.987549;fill:#ef910b;fill-opacity:1;stroke:#6c6c6c;stroke-width:0"
           d=""
           id="path124"
           transform="matrix(0.26458333,0,0,0.26458333,6.4565218,17.217391)" /><path
           style="opacity:0.987549;fill:#ef910b;fill-opacity:1;stroke:#6c6c6c;stroke-width:0"
           d="m 247.54791,569.44887 c -2.0288,-0.26368 0,-0.0608 0,0 z"
           id="path127"
           transform="matrix(0.26458333,0,0,0.26458333,6.4565218,17.217391)"
           sodipodi:nodetypes="ss" /><path
           style="opacity:0.987549;fill:#ef910b;fill-opacity:1;stroke:#6c6c6c;stroke-width:0"
           d="m 244.62315,558.4953 c -0.22159,-0.13553 -0.45275,-0.50422 -0.77415,-1.23476 -0.4224,-0.9601 -0.92391,-1.32322 -1.48073,-1.07214 -0.64145,0.28926 -1.29214,-0.077 -1.57844,-0.88845 -0.12651,-0.35858 -0.10792,-0.60361 0.0595,-0.78428 0.28551,-0.30807 0.82034,-0.29446 1.49299,0.038 0.54226,0.268 0.90288,0.58117 1.35865,1.17989 0.88598,1.16387 1.74197,1.60177 2.29967,1.17645 0.12318,-0.0939 0.23845,-0.15634 0.25614,-0.13865 0.0502,0.0502 -0.24339,0.65202 -0.50889,1.04298 -0.23377,0.34424 -0.61978,0.73438 -0.72661,0.73438 -0.0291,0 -0.0888,0.0135 -0.13272,0.0301 -0.0439,0.0165 -0.16334,-0.021 -0.26544,-0.0835 z"
           id="path129"
           transform="matrix(0.26458333,0,0,0.26458333,6.4565218,17.217391)" /><path
           style="opacity:0.987549;fill:#ef910b;fill-opacity:1;stroke:#6c6c6c;stroke-width:0"
           d="m 244.50367,558.33723 c -0.10969,-0.11631 -0.36538,-0.54677 -0.5682,-0.95657 -0.59522,-1.20266 -0.93875,-1.44849 -1.66888,-1.19426 -0.53789,0.1873 -1.06741,-0.0941 -1.36103,-0.72328 -0.19438,-0.41655 -0.18791,-0.77105 0.0176,-0.96148 0.26111,-0.24199 0.72279,-0.21808 1.33671,0.0692 0.58515,0.27385 0.87117,0.5158 1.47359,1.24658 0.92108,1.11734 1.58831,1.46803 2.19875,1.15566 0.15653,-0.0801 0.28459,-0.1332 0.28459,-0.118 0,0.14664 -0.57041,1.06187 -0.83528,1.34023 -0.41231,0.43329 -0.57776,0.46003 -0.87782,0.14188 z"
           id="path130"
           transform="matrix(0.26458333,0,0,0.26458333,6.4565218,17.217391)" /><path
           style="opacity:0.987549;fill:#ef910b;fill-opacity:1;stroke:#6c6c6c;stroke-width:0"
           d="m 244.51019,558.34414 c -0.1061,-0.1125 -0.37437,-0.55623 -0.59615,-0.98605 -0.41706,-0.8083 -0.71127,-1.16315 -1.03089,-1.24337 -0.0927,-0.0233 -0.33105,0.004 -0.56114,0.0633 -0.31732,0.0823 -0.44887,0.0906 -0.63672,0.04 -0.46104,-0.12415 -0.91889,-0.77697 -0.92011,-1.31191 -4.6e-4,-0.20194 0.0336,-0.2892 0.15795,-0.40442 0.27033,-0.25054 0.72073,-0.22012 1.38462,0.0935 0.52436,0.24773 0.7011,0.40473 1.75992,1.56342 0.79131,0.86593 1.31654,1.09493 1.86624,0.81366 0.25877,-0.13241 9.43391,4.27021 9.40204,4.37063 -0.0943,0.29708 -9.66318,-3.45651 -9.95957,-3.14366 -0.4042,0.42664 -0.57376,0.45502 -0.86619,0.14495 z"
           id="path131"
           transform="matrix(0.26458333,0,0,0.26458333,6.4565218,17.217391)"
           sodipodi:nodetypes="ssscssssssssss" /><path
           style="opacity:0.987549;fill:#ef910b;fill-opacity:1;stroke:#6c6c6c;stroke-width:0"
           d=""
           id="path136"
           transform="matrix(0.26458333,0,0,0.26458333,6.4565218,17.217391)" /><path
           style="opacity:0.987549;fill:#ef910b;fill-opacity:1;stroke:#6c6c6c;stroke-width:0"
           d=""
           id="path137"
           transform="matrix(0.26458333,0,0,0.26458333,6.4565218,17.217391)" /><path
           style="opacity:0.987549;fill:#ef910b;fill-opacity:1;stroke:#6c6c6c;stroke-width:0"
           d="m 228.57611,538.3315 c -0.65948,-0.34496 -1.45066,-0.87297 -1.7118,-1.14239 -0.16883,-0.17419 -0.1945,-0.23194 -0.14053,-0.31615 0.0525,-0.0819 0.15177,-0.10232 0.48352,-0.0996 0.47845,0.004 0.89478,0.17307 1.31854,0.5358 0.44167,0.37805 0.90398,1.28819 0.65434,1.28819 -0.0527,0 -0.32457,-0.11962 -0.60407,-0.26582 z"
           id="path139"
           transform="matrix(0.26458333,0,0,0.26458333,6.4565218,17.217391)" /><path
           style="opacity:0.987549;fill:#ef910b;fill-opacity:1;stroke:#6c6c6c;stroke-width:0"
           d="m 228.5716,538.28102 c -0.89809,-0.47335 -1.82689,-1.15318 -1.82689,-1.33717 0,-0.20405 0.75514,-0.1803 1.22037,0.0384 0.38289,0.17998 0.77144,0.55214 1.02575,0.98247 0.21701,0.36722 0.26607,0.57401 0.13546,0.57095 -0.0412,-9.6e-4 -0.2908,-0.11554 -0.55469,-0.25463 z"
           id="path140"
           transform="matrix(0.26458333,0,0,0.26458333,6.4565218,17.217391)" /><path
           style="opacity:0.987549;fill:#ef910b;fill-opacity:1;stroke:#6c6c6c;stroke-width:0"
           d="m 227.79155,539.56333 c -0.25368,-0.1558 -0.71424,-0.66637 -0.86154,-0.95512 -0.22443,-0.43991 -0.14595,-0.7429 0.2209,-0.85281 0.2135,-0.064 0.24638,-0.0538 0.67087,0.20793 0.2455,0.15137 0.47033,0.31802 0.49962,0.37036 0.0768,0.13717 0.0587,0.68027 -0.0315,0.94905 -0.0425,0.12662 -0.13197,0.26616 -0.19878,0.31009 -0.10394,0.0683 -0.14721,0.0641 -0.29957,-0.0295 z"
           id="path141"
           transform="matrix(0.26458333,0,0,0.26458333,6.4565218,17.217391)" /><path
           style="opacity:0.987549;fill:#ef910b;fill-opacity:1;stroke:#6c6c6c;stroke-width:0"
           d="m 227.56259,539.31413 c 0.0396,-0.63348 -0.69805,-0.79483 -0.69805,-1.11499 0,-0.22488 0.0226,-0.26947 0.17676,-0.34921 0.0972,-0.0503 0.2258,-0.0914 0.28572,-0.0914 0.18328,0 0.96313,0.54189 1.00185,0.69615 0.0952,0.37921 -0.14067,1.16119 -0.35022,1.16119 -0.0472,0 -0.37997,-0.87914 -0.75499,5.12107 z"
           id="path142"
           transform="matrix(0.26458333,0,0,0.26458333,6.4565218,17.217391)"
           sodipodi:nodetypes="ssssssss" /><path
           style="opacity:0.987549;fill:#ef910b;fill-opacity:1;stroke:#6c6c6c;stroke-width:0"
           d="m 228.99401,551.13309 c -0.65399,-1.58723 -1.05362,-2.29047 -1.30162,-2.29047 -0.12776,0 -0.3363,0.32367 -0.48965,0.75999 -0.0905,0.25754 -0.20485,0.53565 -0.25407,0.61803 -0.0833,0.13948 -0.0879,0.11583 -0.0668,-0.34357 0.0314,-0.68261 0.24917,-1.12323 0.65461,-1.32438 0.25007,-0.12407 0.30738,-0.13194 0.49943,-0.0685 0.42273,0.13951 0.77905,0.57672 0.97575,1.19728 0.0727,0.22935 0.3303,2.09603 0.29423,2.1321 -0.0123,0.0123 -0.15261,-0.29393 -0.31186,-0.68043 z"
           id="path143"
           transform="matrix(0.26458333,0,0,0.26458333,6.4565218,17.217391)" /><path
           style="opacity:0.987549;fill:#ef910b;fill-opacity:1;stroke:#6c6c6c;stroke-width:0"
           d="m 228.99588,551.04761 c -0.36614,-0.87522 -0.80915,-1.75333 -1.00354,-1.98916 -0.3167,-0.38422 -0.49426,-0.26167 -0.83608,0.57704 -0.19111,0.46893 -0.20294,0.48412 -0.22237,0.28558 -0.0741,-0.75767 0.4922,-1.51452 1.05433,-1.40907 0.29486,0.0553 0.74913,0.53443 0.90714,0.95676 0.11404,0.30481 0.3936,1.95646 0.35217,2.08072 -0.0102,0.0305 -0.12341,-0.19533 -0.25165,-0.50187 z"
           id="path144"
           transform="matrix(0.26458333,0,0,0.26458333,6.4565218,17.217391)" /><path
           style="opacity:0.987549;fill:#ef910b;fill-opacity:1;stroke:#6c6c6c;stroke-width:0"
           d="m 310.29072,471.29975 c -0.82288,-0.60169 0.42235,-1.32758 2.45281,-1.42982 1.24007,-0.0625 1.4974,-0.0268 1.84623,0.25565 l 0.40534,0.32822 -0.3681,0.34293 c -0.20245,0.18861 -0.66081,0.43063 -1.01858,0.53782 -0.90596,0.27144 -2.92791,0.25023 -3.3177,-0.0348 z"
           id="path145"
           transform="matrix(0.26458333,0,0,0.26458333,6.4565218,17.217391)" /><path
           style="opacity:0.987549;fill:#ef910b;fill-opacity:1;stroke:#6c6c6c;stroke-width:0"
           d="m 321.20348,473.24785 -0.38918,-0.31514 0.43566,-0.43566 c 0.4875,-0.4875 1.62842,-0.86044 2.10873,-0.6893 0.50707,0.18067 0.90783,0.5969 0.90783,0.94284 0,0.73156 -2.31048,1.10665 -3.06304,0.49726 z"
           id="path146"
           transform="matrix(0.26458333,0,0,0.26458333,6.4565218,17.217391)" /><path
           style="opacity:0.987549;fill:#ef910b;fill-opacity:1;stroke:#6c6c6c;stroke-width:0"
           d="m 91.351122,142.57102 c 0.158125,0.0494 -1.089385,-0.24054 -0.832978,-0.40712 0.243739,-0.15835 1.419016,-0.13482 1.573835,0.003 0.157191,0.14021 0.148546,0.34801 -0.01781,0.42856 -0.193252,0.0936 -1.629602,-0.308 -1.483942,-0.26248 z"
           id="path147"
           sodipodi:nodetypes="ssssss" /><path
           style="opacity:0.987549;fill:#ef910b;fill-opacity:1;stroke:#6c6c6c;stroke-width:0"
           d="m 263.6233,542.85839 c -0.0867,-0.22489 -0.54821,-1.38517 -1.02551,-2.57841 -3.07521,-7.68803 -5.52051,-17.24426 -6.85992,-26.80857 -0.82617,-5.89945 -1.01994,-8.631 -1.0158,-14.31958 0.003,-4.68967 0.0589,-5.80967 0.45708,-9.22064 0.24924,-2.13542 0.47266,-3.8998 0.49648,-3.92085 0.10089,-0.0891 10.69641,-3.14668 12.2446,-3.53341 6.03316,-1.50706 13.91044,-2.98269 15.33636,-2.87292 0.51774,0.0399 0.65564,0.0132 0.42952,-0.083 -0.45347,-0.19287 2.52119,-0.52249 6.43371,-0.71293 1.67768,-0.0817 3.22496,-0.19917 3.43841,-0.26114 0.60724,-0.17629 0.90448,-0.98604 1.07258,-2.92196 0.0853,-0.98197 0.1826,-1.81297 0.2163,-1.84667 0.0337,-0.0337 0.11365,0.4279 0.17768,1.02576 0.20229,1.88903 -0.39013,5.01843 -1.7701,9.35028 -1.39225,4.37041 -1.42966,4.61064 -1.43832,9.23571 -0.008,4.14641 -0.008,4.15371 -0.50638,5.59226 -1.15451,3.33531 -4.622,9.54197 -9.8461,17.6241 -2.81006,4.3474 -17.32219,26.28469 -17.53454,26.50611 -0.0874,0.0911 -0.21314,-0.0133 -0.30605,-0.25419 z"
           id="path148"
           transform="matrix(0.26458333,0,0,0.26458333,6.4565218,17.217391)" /><path
           style="opacity:0.987549;fill:#ef910b;fill-opacity:1;stroke:#6c6c6c;stroke-width:0"
           d="m 291.31845,478.32567 c -0.30301,-0.11871 -0.30507,-0.13616 -0.0285,-0.24229 0.42045,-0.16134 2.00492,-0.13754 2.27582,0.0342 0.48186,0.30545 -1.52456,0.49124 -2.24731,0.20811 z"
           id="path149"
           transform="matrix(0.26458333,0,0,0.26458333,6.4565218,17.217391)"
           inkscape:label="path149" /></g></g></g></svg>
