<?xml version="1.0" encoding="UTF-8" standalone="no"?>
<!-- Created with Inkscape (http://www.inkscape.org/) -->

<svg
   width="210mm"
   height="297mm"
   viewBox="0 0 210 297"
   version="1.1"
   id="svg1"
   xml:space="preserve"
   xmlns="http://www.w3.org/2000/svg"
   xmlns:svg="http://www.w3.org/2000/svg"><defs
     id="defs1" /><g
     id="layer1"><g
       id="g1"
       transform="translate(25.467391,-76.043478)"><g
         id="g8"
         transform="translate(-26.686068,76.637206)"><path
           style="fill:#f0f0f1"
           d="m 114.72448,153.19715 c -2.4531,-0.77753 -3.47,-4.01969 -2.10014,-6.69583 0.82064,-1.60318 3.3744,-2.27759 5.14918,-1.35981 0.91699,0.47419 1.8035,2.18045 1.81234,3.48818 l 0.006,0.85989 h -2.48115 c -2.88059,0 -3.45458,0.30749 -2.70618,1.44969 0.50604,0.7723 1.41522,1.05802 2.61103,0.82052 1.60205,-0.31817 1.89659,-0.2944 1.98891,0.16049 0.19878,0.97935 -2.59177,1.81191 -4.2798,1.27687 z m 2.73649,-5.14586 c 0.74692,-0.89998 -0.94346,-2.22772 -2.21884,-1.74282 -0.73956,0.28118 -1.3155,1.19308 -1.1031,1.74658 0.1999,0.52093 2.88901,0.51789 3.32194,-0.004 z m 5.73414,5.13335 c -0.97591,-0.2922 -2.01594,-1.26678 -2.01594,-1.88909 0,-0.70211 0.96114,-0.61187 1.90033,0.17841 0.93764,0.78897 2.07689,0.85384 2.70996,0.1543 0.72663,-0.80292 0.17145,-1.46014 -1.66989,-1.97679 -1.90883,-0.53559 -2.62247,-1.0843 -2.83365,-2.17875 -0.12935,-0.67035 -0.0121,-0.99111 0.62133,-1.70006 0.68288,-0.76428 0.97641,-0.88753 2.34144,-0.98312 1.31562,-0.0921 1.7061,-0.0107 2.48673,0.51853 0.50932,0.3453 0.96409,0.89162 1.01059,1.21404 0.0707,0.49049 -0.0414,0.58622 -0.6866,0.58622 -0.43512,0 -0.97981,-0.23057 -1.25003,-0.52916 -0.66409,-0.73381 -2.13082,-0.71513 -2.5308,0.0322 -0.41777,0.78063 0.26503,1.38352 2.18271,1.92726 2.37206,0.67258 3.22396,2.19924 2.05584,3.68426 -0.82449,1.04817 -2.66527,1.45778 -4.32202,0.96172 z m 8.23666,-0.14222 c -0.40018,-0.21711 -0.74326,-0.4207 -0.76241,-0.45243 -0.0191,-0.0317 -0.10844,-1.42692 -0.19844,-3.10041 -0.15187,-2.82405 -0.20641,-3.06147 -0.75894,-3.30388 -0.78225,-0.34319 -0.7584,-1.03478 0.0484,-1.40237 0.45821,-0.20877 0.66785,-0.54499 0.7276,-1.16695 0.0703,-0.73176 0.20237,-0.88729 0.81305,-0.95754 0.74325,-0.0855 0.81202,-0.003 1.10131,1.3223 0.10334,0.47338 0.35266,0.73735 0.7497,0.79375 0.77039,0.10941 1.0166,1.27511 0.26932,1.27511 -0.89819,0 -1.12965,0.55652 -1.12965,2.71615 0,2.29124 0.27973,3.10468 1.06764,3.10468 0.37193,0 0.51986,0.18017 0.51986,0.63316 0,0.9936 -1.14432,1.24536 -2.4474,0.53843 z m -31.817317,-0.1794 c -0.341276,-0.96587 -2.408326,-10.79762 -2.294128,-10.91181 0.223485,-0.22349 1.592503,-0.1509 1.742876,0.0924 0.07714,0.12482 0.438744,1.75336 0.803556,3.61898 0.979463,5.00891 1.152373,4.9708 2.444073,-0.53864 l 0.74438,-3.175 0.84547,-0.0818 c 0.95507,-0.0925 0.84752,-0.34094 1.93348,4.4673 0.96729,4.28283 1.21984,4.20578 2.12114,-0.64711 0.32782,-1.76506 0.65207,-3.35802 0.72055,-3.53992 0.12201,-0.32406 1.91999,-0.48467 1.91999,-0.17151 0,0.0876 -0.53579,2.59519 -1.19063,5.57248 -0.65484,2.9773 -1.19062,5.47234 -1.19062,5.54454 0,0.0722 -0.49919,0.0947 -1.10931,0.0499 l -1.10931,-0.0814 -0.84838,-3.39085 c -0.46661,-1.86496 -0.9219,-3.46437 -1.01177,-3.55423 -0.36812,-0.36812 -0.73324,0.53365 -1.5068,3.72154 l -0.81433,3.35583 H 100.773 c -0.59464,0 -1.09184,-0.14193 -1.158547,-0.33073 z"
           id="path8" /><path
           style="fill:#9fa1a3"
           d="m 114.02534,153.12761 c -2.7105,-1.36683 -3.17514,-5.4171 -0.87698,-7.64456 0.77535,-0.7515 1.10664,-0.87716 2.55581,-0.96944 1.51692,-0.0966 1.74347,-0.04 2.54763,0.63669 1.05324,0.88624 1.60445,2.09167 1.60445,3.50873 0,1.28167 -0.17589,1.35972 -3.06435,1.35972 -1.76455,0 -2.22731,0.0793 -2.22731,0.38187 0,0.51288 1.02957,1.20563 1.7918,1.20563 0.33865,0 0.98966,-0.19337 1.44669,-0.42971 0.7979,-0.41261 0.84986,-0.40636 1.30593,0.15686 0.63381,0.78272 0.28313,1.40642 -1.10248,1.96083 -1.46242,0.58514 -2.58344,0.53822 -3.98119,-0.16662 z m 4.44085,-0.34909 c 0.35117,-0.23009 0.58869,-0.60894 0.53809,-0.85824 -0.0923,-0.45489 -0.38686,-0.47866 -1.98891,-0.16049 -1.19581,0.2375 -2.10499,-0.0482 -2.61103,-0.82052 -0.7484,-1.1422 -0.17441,-1.44969 2.70618,-1.44969 h 2.48115 l -0.006,-0.85989 c -0.009,-1.30773 -0.89535,-3.01399 -1.81234,-3.48818 -1.77478,-0.91778 -4.32854,-0.24337 -5.14918,1.35981 -1.36986,2.67614 -0.35296,5.9183 2.10014,6.69583 1.0038,0.31816 2.94945,0.10048 3.74171,-0.41863 z m -4.32716,-4.72347 c -0.2124,-0.5535 0.36354,-1.4654 1.1031,-1.74658 1.27538,-0.4849 2.96576,0.84284 2.21884,1.74282 -0.43293,0.52165 -3.12204,0.52469 -3.32194,0.004 z m 2.977,-0.28863 c 0.22372,-0.58299 -0.3911,-1.18725 -1.20801,-1.18725 -0.82111,0 -1.34343,0.43205 -1.34343,1.11125 0,0.38854 0.22079,0.47625 1.19892,0.47625 0.82613,0 1.24669,-0.12446 1.35252,-0.40025 z m 5.40486,5.49307 c -1.09858,-0.56018 -2.00232,-1.72286 -1.78314,-2.29404 0.2618,-0.68223 1.82834,-0.53286 2.55809,0.24393 0.93095,0.99095 2.5451,0.78642 2.33829,-0.29629 -0.0667,-0.34935 -0.59473,-0.65663 -1.77338,-1.03203 -1.88004,-0.59881 -2.94616,-1.58621 -2.94616,-2.72861 0,-0.90999 0.60732,-1.7862 1.59042,-2.29458 0.9875,-0.51066 3.24615,-0.50747 4.23907,0.006 0.81847,0.42325 1.7107,1.81707 1.44175,2.25226 -0.30043,0.48609 -2.13275,0.28929 -2.65237,-0.28488 -0.65204,-0.7205 -1.8096,-0.60319 -1.92319,0.1949 -0.0722,0.50741 0.14762,0.64777 1.77237,1.13164 2.6914,0.80154 3.52094,2.08731 2.55357,3.95799 -0.74478,1.44025 -3.6362,2.05092 -5.41532,1.14373 z m 3.47489,-0.0763 c 1.10084,-0.30574 2.06256,-1.34943 2.06256,-2.23837 0,-1.03797 -0.98265,-1.94838 -2.59705,-2.40613 -1.91768,-0.54374 -2.60048,-1.14663 -2.18271,-1.92726 0.39998,-0.74736 1.86671,-0.76604 2.5308,-0.0322 0.27022,0.29859 0.81491,0.52916 1.25003,0.52916 0.64521,0 0.75734,-0.0957 0.6866,-0.58622 -0.0465,-0.32242 -0.50127,-0.86874 -1.01059,-1.21404 -0.78063,-0.52923 -1.17111,-0.61066 -2.48673,-0.51853 -1.36503,0.0956 -1.65856,0.21884 -2.34144,0.98312 -0.63345,0.70895 -0.75068,1.02971 -0.62133,1.70006 0.21118,1.09445 0.92482,1.64316 2.83365,2.17875 1.84134,0.51665 2.39652,1.17387 1.66989,1.97679 -0.63307,0.69954 -1.77232,0.63467 -2.70996,-0.1543 -1.51139,-1.27175 -2.69459,-0.44153 -1.27345,0.89355 1.05854,0.99445 2.5209,1.27914 4.18973,0.81565 z m 4.95262,-0.23364 c -0.75224,-0.75224 -0.7734,-0.84617 -0.7734,-3.43348 0,-2.54547 -0.0285,-2.67877 -0.66146,-3.09349 -0.87957,-0.57632 -0.88907,-1.62202 -0.0178,-1.9533 0.47133,-0.1792 0.66617,-0.47856 0.7276,-1.11793 0.0769,-0.8006 0.16656,-0.88003 1.07822,-0.95544 1.02849,-0.0851 1.06642,-0.0484 1.36527,1.32067 0.10334,0.47338 0.35267,0.73736 0.74971,0.79375 0.45579,0.0647 0.61426,0.28554 0.67778,0.94439 0.0689,0.71474 -0.008,0.85989 -0.45371,0.85989 -0.746,0 -1.08441,0.77359 -1.08441,2.47893 0,1.82888 0.358,2.81274 1.02348,2.81274 0.45888,0 0.82861,0.47346 0.82861,1.06108 0,0.5179 -0.89601,1.05559 -1.75905,1.05559 -0.67235,0 -1.14025,-0.21276 -1.70089,-0.7734 z m 2.51225,0.34822 c 0.62957,-0.24159 0.54539,-1.42691 -0.10134,-1.42691 -0.78791,0 -1.06764,-0.81344 -1.06764,-3.10468 0,-2.15963 0.23146,-2.71615 1.12965,-2.71615 0.74728,0 0.50107,-1.1657 -0.26932,-1.27511 -0.39704,-0.0564 -0.64636,-0.32037 -0.7497,-0.79375 -0.28929,-1.32521 -0.35806,-1.40779 -1.10131,-1.3223 -0.61068,0.0703 -0.74275,0.22578 -0.81305,0.95754 -0.0598,0.62196 -0.26939,0.95818 -0.7276,1.16695 -0.80676,0.36759 -0.83061,1.05918 -0.0484,1.40237 0.55253,0.24241 0.60707,0.47983 0.75894,3.30388 0.09,1.67349 0.1793,3.06868 0.19844,3.10041 0.0191,0.0317 0.36223,0.23532 0.76241,0.45243 0.79298,0.4302 1.38049,0.50413 2.02888,0.25532 z m -34.11054,-0.17013 c -0.386865,-1.09717 -2.479391,-11.15064 -2.360821,-11.34249 0.187759,-0.3038 2.154969,-0.30304 2.342819,9.1e-4 0.07952,0.12867 0.390065,1.52765 0.690092,3.10885 0.6323,3.33229 0.77998,3.89323 0.9739,3.6993 0.0778,-0.0778 0.51345,-1.66439 0.96803,-3.52567 l 0.8265,-3.38413 1.10216,-0.0803 c 1.26795,-0.0923 1.09587,-0.40784 2.04126,3.74257 0.63376,2.7823 0.82098,3.3094 1.08258,3.04781 0.0687,-0.0687 0.37224,-1.42803 0.67448,-3.02066 0.77427,-4.08002 0.63935,-3.82175 1.99651,-3.82175 0.84458,0 1.1728,0.10667 1.1728,0.38115 0,0.60864 -2.1134,10.27169 -2.39361,10.94425 -0.22222,0.53337 -0.41028,0.59967 -1.50082,0.52917 l -1.24677,-0.0806 -0.79302,-3.24442 c -0.43616,-1.78443 -0.91011,-3.20538 -1.05322,-3.15768 -0.14311,0.0477 -0.56856,1.38863 -0.94545,2.97984 -0.37688,1.5912 -0.77725,3.04192 -0.88971,3.22383 -0.11425,0.1848 -0.72657,0.33073 -1.38778,0.33073 -0.708066,0 -1.230149,-0.13283 -1.29993,-0.33073 z m 3.27891,-3.28969 c 0.77356,-3.18789 1.13868,-4.08966 1.5068,-3.72154 0.0899,0.0899 0.54516,1.68927 1.01177,3.55423 l 0.84838,3.39085 1.10931,0.0814 c 0.61012,0.0447 1.10931,0.0223 1.10931,-0.0499 0,-0.0722 0.53578,-2.56724 1.19062,-5.54454 0.65484,-2.97729 1.19063,-5.48491 1.19063,-5.57248 0,-0.31316 -1.79798,-0.15255 -1.91999,0.17151 -0.0685,0.1819 -0.39273,1.77486 -0.72055,3.53992 -0.9013,4.85289 -1.15385,4.92994 -2.12114,0.64711 -1.08596,-4.80824 -0.97841,-4.55975 -1.93348,-4.4673 l -0.84547,0.0818 -0.74438,3.175 c -1.2917,5.50944 -1.46461,5.54755 -2.444073,0.53864 -0.364812,-1.86562 -0.726412,-3.49416 -0.803556,-3.61898 -0.150373,-0.24331 -1.519391,-0.3159 -1.742876,-0.0924 -0.114198,0.11419 1.952852,9.94594 2.294128,10.91181 0.06671,0.1888 0.563907,0.33073 1.158547,0.33073 h 1.04169 z"
           id="path7" /><path
           style="fill:#ea8f0b"
           d="m 76.927605,162.26026 c -0.545703,-0.22388 -0.992188,-0.50997 -0.992188,-0.63574 0,-0.12578 0.885942,-0.22868 1.96876,-0.22868 1.082819,0 2.042345,-0.11907 2.132282,-0.26459 0.210253,-0.34019 0.661459,-0.34323 0.661459,-0.004 0,0.21657 -2.468421,1.6468 -2.703184,1.56625 -0.04122,-0.0141 -0.521426,-0.20889 -1.067129,-0.43278 z m 1.984375,-3.44895 c -0.716469,-0.11808 -0.730005,-0.26771 -0.09851,-1.08897 l 0.485034,-0.63079 0.28703,0.82338 c 0.3157,0.90562 0.212863,1.04248 -0.673552,0.89638 z m 6.707829,-2.1797 c -0.07591,-0.21733 -0.384276,-1.43718 -0.68525,-2.71078 -0.483748,-2.04702 -0.514247,-2.58103 -0.262919,-4.60355 0.334455,-2.69148 0.225156,-3.33865 -0.96403,-5.70807 -0.497298,-0.99085 -0.893026,-2.18335 -0.893026,-2.69106 0,-0.80517 0.172523,-1.03411 1.476213,-1.95896 l 1.476213,-1.04723 1.764933,0.52563 c 0.970713,0.28909 1.927329,0.65771 2.125813,0.81915 0.582123,0.47346 0.26,7.9231 -0.458236,10.59748 -0.887163,3.30339 -3.238314,7.75477 -3.579711,6.77739 z M 67.95161,152.59844 c -1.109251,-2.33271 -1.805776,-6.38429 -1.805776,-10.50394 0,-1.79046 0.105353,-2.68172 0.340021,-2.87648 0.807355,-0.67005 9.068682,-2.34814 9.764376,-1.9834 0.100387,0.0526 0.01109,0.50598 -0.198437,1.00745 -0.209528,0.50147 -0.38096,1.61853 -0.38096,2.48235 0,1.30848 -0.157008,1.85078 -0.940858,3.24964 -1.164413,2.07803 -6.015785,9.47099 -6.220034,9.47866 -0.08219,0.003 -0.333438,-0.38134 -0.558332,-0.85428 z m 69.2911,-1.15643 c -0.1037,-0.1037 -0.18854,-2.43842 -0.18854,-5.18829 v -4.99975 l 0.8599,0.0829 0.85989,0.0829 0.0773,2.05052 c 0.0585,1.55373 0.16785,2.05052 0.45113,2.05052 0.20562,0 1.09893,-0.9525 1.98513,-2.11666 1.46653,-1.92651 1.69341,-2.11667 2.52544,-2.11667 0.50278,0 0.91299,0.0893 0.91158,0.19844 -10e-4,0.10914 -0.43165,0.73422 -0.95607,1.38906 -0.52443,0.65485 -1.25112,1.57672 -1.61487,2.0486 l -0.66137,0.85798 1.74973,2.74471 c 0.96235,1.50959 1.74973,2.82014 1.74973,2.91234 0,0.0922 -0.40826,0.16762 -0.90725,0.16762 -0.84269,0 -0.99525,-0.1412 -2.14405,-1.98437 -0.77058,-1.23635 -1.4105,-1.98438 -1.69758,-1.98438 -0.80177,0 -1.30026,0.85716 -1.38667,2.38439 -0.0754,1.33206 -0.13765,1.45854 -0.75352,1.53036 -0.36925,0.0431 -0.7562,-0.007 -0.85989,-0.11024 z m 10.92396,-0.3471 c 0,-0.30415 0.24121,-0.57935 0.59531,-0.67919 1.50265,-0.42371 2.10506,-0.79329 2.48239,-1.52297 0.53237,-1.02949 0.1947,-1.38007 -1.00909,-1.04769 -2.17994,0.60191 -3.79146,-0.96137 -3.57542,-3.46841 0.1374,-1.59436 0.85067,-2.58364 2.20917,-3.06404 2.02763,-0.71701 3.82393,0.41187 4.34248,2.72901 0.65119,2.90984 -0.3077,5.847 -2.27211,6.95957 -1.3556,0.76778 -2.77273,0.81568 -2.77273,0.0937 z m 2.89738,-4.50876 c 0.66117,-0.35385 0.87638,-1.41178 0.54075,-2.65823 -0.63282,-2.3501 -3.02287,-2.03087 -3.35345,0.4479 -0.24086,1.80602 1.30228,3.01868 2.8127,2.21033 z"
           id="path6" /><path
           style="fill:#a36b1a"
           d="m 76.266147,162.27533 c -0.763985,-0.37177 -1.389063,-0.78128 -1.389063,-0.91001 0,-0.12874 1.067373,-0.23407 2.371941,-0.23407 2.16743,0 2.398593,-0.0498 2.681055,-0.57758 0.263181,-0.49176 0.220893,-0.64902 -0.284586,-1.05834 -0.326535,-0.26441 -0.878166,-0.48074 -1.225846,-0.48074 -0.770992,0 -0.800916,-0.36344 -0.102981,-1.25072 0.291042,-0.37 0.529167,-0.95433 0.529167,-1.29851 0,-1.01544 0.484817,-0.71598 0.807372,0.4987 0.164231,0.61847 0.526008,1.80534 0.803948,2.63749 0.277941,0.83216 0.505347,1.63382 0.505347,1.78148 0,0.3033 -2.445766,1.60892 -2.967767,1.58428 -0.186739,-0.009 -0.964603,-0.3202 -1.728587,-0.69198 z m 3.11765,-0.22249 c 0.722766,-0.36626 1.314121,-0.78298 1.314121,-0.92605 0,-0.33877 -0.451206,-0.33573 -0.661459,0.004 -0.08994,0.14552 -1.049463,0.26459 -2.132282,0.26459 -1.082818,0 -1.96876,0.1029 -1.96876,0.22868 0,0.17544 1.061197,0.72607 2.059317,1.06852 0.04122,0.0141 0.666296,-0.27395 1.389063,-0.6402 z m 0.201735,-4.13791 -0.28703,-0.82338 -0.485034,0.63079 c -0.631493,0.82126 -0.617957,0.97089 0.09851,1.08897 0.886415,0.1461 0.989252,0.009 0.673552,-0.89638 z m 3.155089,0.74729 c -0.294816,-0.74959 -0.246754,-1.13252 0.09878,-0.78699 0.159168,0.15917 0.244947,0.5104 0.190621,0.78052 -0.09527,0.47369 -0.105543,0.47392 -0.289397,0.006 z m 3.248963,0.0722 c 0,-0.15411 0.119063,-0.20662 0.264584,-0.11668 0.145521,0.0899 0.264583,0.21603 0.264583,0.2802 0,0.0642 -0.119062,0.11668 -0.264583,0.11668 -0.145521,0 -0.264584,-0.12609 -0.264584,-0.2802 z m -1.183907,-3.97401 c -0.612951,-2.56347 -0.673947,-3.20257 -0.486101,-5.09323 0.294998,-2.96912 0.188252,-3.68496 -0.859852,-5.76622 -0.955694,-1.89775 -1.17621,-3.51146 -0.578994,-4.23699 0.624689,-0.75891 3.179239,-2.39483 3.342474,-2.14051 0.08979,0.1399 0.87763,0.45998 1.750755,0.71131 0.873125,0.25132 1.736329,0.57933 1.91823,0.72892 0.23667,0.19462 0.3291,1.33503 0.325003,4.00988 -0.0068,4.43227 -0.551767,7.31881 -1.955328,10.35663 -0.991641,2.14628 -2.289699,4.33585 -2.579929,4.35184 -0.09645,0.005 -0.490762,-1.30942 -0.876258,-2.92163 z m 2.91146,-0.93741 c 1.511097,-3.08632 2.024351,-5.48805 2.171839,-10.16295 0.103201,-3.27113 0.05602,-4.16966 -0.23122,-4.40328 -0.198484,-0.16144 -1.1551,-0.53006 -2.125813,-0.81915 l -1.764933,-0.52563 -1.476213,1.04723 c -1.30369,0.92485 -1.476213,1.15379 -1.476213,1.95896 0,0.50771 0.395728,1.70021 0.893026,2.69106 1.189186,2.36942 1.298485,3.01659 0.96403,5.70807 -0.251328,2.02252 -0.220829,2.55653 0.262919,4.60355 0.780305,3.30192 0.734664,3.2187 1.341634,2.4462 0.285097,-0.36286 0.933522,-1.50768 1.440944,-2.54406 z m -19.864023,-0.5631 c -0.789982,-1.88195 -1.436369,-4.17269 -1.698485,-6.01927 -0.38251,-2.69475 -0.347902,-7.60611 0.05735,-8.13884 0.435487,-0.57247 3.64605,-1.45286 6.945313,-1.9045 1.455209,-0.19921 2.854193,-0.44471 3.108855,-0.54555 0.595325,-0.23575 0.619063,0.49351 0.05965,1.83238 -0.221862,0.53099 -0.382498,1.60428 -0.356981,2.38516 0.03873,1.18512 -0.112048,1.70799 -0.912377,3.16401 -0.9685,1.76197 -6.502589,10.2188 -6.687111,10.2188 -0.05485,0 -0.287142,-0.44649 -0.51621,-0.99219 z m 3.371133,-3.70978 c 3.985225,-6.05504 4.446587,-6.97076 4.446587,-8.8257 0,-0.86382 0.171432,-1.98088 0.38096,-2.48235 0.209528,-0.50147 0.298824,-0.95482 0.198437,-1.00745 -0.695694,-0.36474 -8.957021,1.31335 -9.764376,1.9834 -0.720888,0.59828 -0.306636,7.75226 0.640738,11.06531 0.45505,1.59136 1.147681,3.17824 1.383349,3.16939 0.08219,-0.003 1.303626,-1.75926 2.714305,-3.9026 z m 65.689453,1.99794 c -0.0749,-0.19524 -0.10373,-2.6135 -0.064,-5.37391 l 0.0722,-5.01894 h 1.05833 1.05833 l 0.0777,1.91823 c 0.0428,1.05502 0.1873,1.91823 0.3212,1.91823 0.13391,0 0.93237,-0.8923 1.77435,-1.98289 1.52362,-1.97349 1.53684,-1.9829 2.78765,-1.98438 0.69123,-8.1e-4 1.25677,0.10223 1.25677,0.22898 0,0.12675 -0.71437,1.1254 -1.5875,2.21922 -0.87312,1.09381 -1.5875,2.15385 -1.5875,2.35563 0,0.20179 0.76732,1.55462 1.70515,3.00631 0.93783,1.45168 1.60836,2.73684 1.49007,2.85591 -0.11829,0.11907 -0.67724,0.1786 -1.24212,0.13229 -0.95027,-0.0779 -1.1227,-0.2276 -2.30642,-2.00243 -1.75465,-2.63085 -2.31338,-2.55856 -2.55605,0.33073 l -0.13334,1.5875 -0.99431,0.0822 c -0.64991,0.0538 -1.04149,-0.0407 -1.13053,-0.27273 z m 1.94242,-1.52617 c 0.0864,-1.52723 0.5849,-2.38439 1.38667,-2.38439 0.28708,0 0.927,0.74803 1.69758,1.98438 1.1488,1.84317 1.30136,1.98437 2.14405,1.98437 0.49899,0 0.90725,-0.0754 0.90725,-0.16762 0,-0.0922 -0.78738,-1.40275 -1.74973,-2.91234 l -1.74973,-2.74471 0.66137,-0.85798 c 0.36375,-0.47188 1.09044,-1.39375 1.61487,-2.0486 0.52442,-0.65484 0.95466,-1.27992 0.95607,-1.38906 10e-4,-0.10914 -0.4088,-0.19844 -0.91158,-0.19844 -0.83203,0 -1.05891,0.19016 -2.52544,2.11667 -0.8862,1.16416 -1.77951,2.11666 -1.98513,2.11666 -0.28328,0 -0.39258,-0.49679 -0.45113,-2.05052 l -0.0773,-2.05052 -0.85989,-0.0829 -0.8599,-0.0829 v 4.99975 c 0,2.74987 0.0848,5.08459 0.18854,5.18829 0.10369,0.10369 0.49064,0.1533 0.85989,0.11024 0.61587,-0.0718 0.67815,-0.1983 0.75352,-1.53036 z m 9.04597,1.0835 c 0,-0.76945 0.38205,-1.08664 1.30887,-1.08664 0.6317,0 1.86613,-0.99478 1.86613,-1.50386 0,-0.32079 -0.1934,-0.37083 -0.91211,-0.236 -2.05751,0.38599 -3.84842,-1.26688 -3.84842,-3.55181 0,-2.29717 1.80522,-4.0964 3.89681,-3.88389 2.14794,0.21824 3.19784,1.48784 3.44015,4.16005 0.35364,3.90001 -1.72781,6.86759 -4.81689,6.86759 -0.85431,0 -0.93454,-0.0657 -0.93454,-0.76544 z m 3.03731,-0.1042 c 1.96441,-1.11257 2.9233,-4.04973 2.27211,-6.95957 -0.51855,-2.31714 -2.31485,-3.44602 -4.34248,-2.72901 -1.3585,0.4804 -2.07177,1.46968 -2.20917,3.06404 -0.21604,2.50704 1.39548,4.07032 3.57542,3.46841 1.20379,-0.33238 1.54146,0.0182 1.00909,1.04769 -0.37733,0.72968 -0.97974,1.09926 -2.48239,1.52297 -0.3541,0.0998 -0.59531,0.37504 -0.59531,0.67919 0,0.72196 1.41713,0.67406 2.77273,-0.0937 z m -2.24955,-4.88504 c -0.44017,-0.55839 -0.54215,-0.96313 -0.4385,-1.74033 0.22755,-1.70623 1.29933,-2.44071 2.56956,-1.7609 0.60756,0.32515 1.13005,2.09766 0.89473,3.03527 -0.33951,1.35272 -2.11164,1.62562 -3.02579,0.46596 z m 2.33432,0.14552 c 0.53105,-0.53106 0.39644,-2.70405 -0.20101,-3.24473 -1.57594,-1.42621 -3.21794,1.64006 -1.69422,3.16379 0.4784,0.47839 1.45602,0.52015 1.89523,0.0809 z M 78.58636,134.2822 c -0.293547,-0.3537 -0.269359,-0.47926 0.154068,-0.79976 0.612184,-0.46338 0.814308,-0.48378 1.047942,-0.10575 0.09901,0.1602 -0.05259,0.52388 -0.336891,0.80818 -0.468096,0.46809 -0.549786,0.47728 -0.865119,0.0973 z m -1.857193,-1.06449 c 0,-0.21828 0.171567,-0.39688 0.38126,-0.39688 0.559755,0 0.741407,0.44787 0.257039,0.63374 -0.589699,0.22629 -0.638299,0.20825 -0.638299,-0.23686 z"
           id="path5" /><path
           style="fill:#5a5f61"
           d="m 114.16279,153.63333 c -0.43927,-0.1994 -1.17536,-0.79157 -1.63576,-1.31594 -1.86406,-2.12305 -1.28818,-6.17018 1.08379,-7.61657 1.13668,-0.69313 3.44351,-0.67675 4.60717,0.0327 1.05829,0.64522 1.88901,2.34729 1.89703,3.88684 0.008,1.44398 -0.40749,1.66295 -3.15179,1.66295 -2.11332,0 -2.62538,0.24761 -1.62229,0.78445 0.74245,0.39734 1.54845,0.33715 2.42591,-0.18118 0.75699,-0.44717 0.78291,-0.44252 1.49287,0.26744 0.80934,0.80933 0.70845,1.20586 -0.54485,2.14159 -0.88898,0.66372 -3.4202,0.8515 -4.55208,0.3377 z m 3.84374,-0.3391 c 1.38561,-0.55441 1.73629,-1.17811 1.10248,-1.96083 -0.45607,-0.56322 -0.50803,-0.56947 -1.30593,-0.15686 -0.45703,0.23634 -1.10804,0.42971 -1.44669,0.42971 -0.76223,0 -1.7918,-0.69275 -1.7918,-1.20563 0,-0.30253 0.46276,-0.38187 2.22731,-0.38187 2.88846,0 3.06435,-0.0781 3.06435,-1.35972 0,-1.41706 -0.55121,-2.62249 -1.60445,-3.50873 -0.80416,-0.67666 -1.03071,-0.73328 -2.54763,-0.63669 -1.44917,0.0923 -1.78046,0.21794 -2.55581,0.96944 -2.29816,2.22746 -1.83352,6.27773 0.87698,7.64456 1.39775,0.70484 2.51877,0.75176 3.98119,0.16662 z m -3.44194,-5.60381 c 0,-0.6792 0.52232,-1.11125 1.34343,-1.11125 0.81691,0 1.43173,0.60426 1.20801,1.18725 -0.10583,0.27579 -0.52639,0.40025 -1.35252,0.40025 -0.97813,0 -1.19892,-0.0877 -1.19892,-0.47625 z m 2.33088,-0.25136 c -0.0645,-0.33496 -0.34328,-0.46302 -1.00797,-0.46302 -0.66468,0 -0.94345,0.12806 -1.00796,0.46302 -0.0734,0.38087 0.10549,0.46302 1.00796,0.46302 0.90247,0 1.08131,-0.0822 1.00797,-0.46302 z m 5.72579,6.17628 c -1.06813,-0.46525 -2.28395,-1.93587 -2.18332,-2.64089 0.0649,-0.45469 0.29319,-0.57417 1.22502,-0.6412 0.95568,-0.0687 1.25194,0.0328 1.78988,0.6132 0.70715,0.76303 1.76628,0.81995 1.90294,0.10227 0.0588,-0.30861 -0.26705,-0.51864 -1.18792,-0.76578 -3.39401,-0.91087 -4.46765,-2.93973 -2.62162,-4.9541 0.84231,-0.91911 1.00552,-0.98342 2.71198,-1.06853 1.46595,-0.0731 1.97862,0.0117 2.66126,0.44006 1.10856,0.69569 1.75839,1.70642 1.53984,2.39501 -0.24212,0.76285 -2.22789,0.77168 -2.91453,0.0129 -0.60484,-0.66835 -1.79642,-0.72563 -1.67216,-0.0804 0.0568,0.29498 0.64572,0.61348 1.71851,0.92941 2.81376,0.82864 3.83063,2.8814 2.3179,4.67918 -1.06524,1.26597 -3.56582,1.72884 -5.28778,0.9788 z m 3.85439,-0.32209 c 1.74964,-0.70007 2.36699,-2.54242 1.30453,-3.89311 -0.36807,-0.46793 -1.13966,-0.86775 -2.39754,-1.24237 -1.62475,-0.48387 -1.84459,-0.62423 -1.77237,-1.13164 0.11359,-0.79809 1.27115,-0.9154 1.92319,-0.1949 0.51962,0.57417 2.35194,0.77097 2.65237,0.28488 0.26895,-0.43519 -0.62328,-1.82901 -1.44175,-2.25226 -0.99292,-0.51345 -3.25157,-0.51664 -4.23907,-0.006 -0.9831,0.50838 -1.59042,1.38459 -1.59042,2.29458 0,1.1424 1.06612,2.1298 2.94616,2.72861 1.17865,0.3754 1.70666,0.68268 1.77338,1.03203 0.20681,1.08271 -1.40734,1.28724 -2.33829,0.29629 -0.42351,-0.4508 -0.90429,-0.66146 -1.50964,-0.66146 -1.12024,0 -1.38591,0.5932 -0.6906,1.54201 1.12755,1.53864 3.31771,2.0285 5.38005,1.20332 z m 4.78681,0.32502 c -1.0685,-0.59222 -1.33258,-1.41855 -1.34266,-4.20138 -0.009,-2.52855 -0.0245,-2.59199 -0.68762,-2.8441 -0.56537,-0.21495 -0.66443,-0.40098 -0.59531,-1.11793 0.0563,-0.5837 0.27018,-0.94225 0.66568,-1.11584 0.41416,-0.18177 0.60553,-0.52625 0.66146,-1.19062 l 0.0787,-0.93486 h 1.32292 c 1.30437,0 1.32629,0.0137 1.5636,0.97411 0.17163,0.69464 0.41833,1.0187 0.85989,1.12952 0.50192,0.12597 0.61922,0.33111 0.61922,1.08296 0,0.74594 -0.12952,0.97679 -0.66146,1.17904 -0.62919,0.23922 -0.66146,0.35435 -0.66146,2.36026 0,2.03995 0.0238,2.12011 0.7276,2.4559 0.86468,0.41252 1.09971,1.52081 0.45849,2.16203 -0.51833,0.51833 -2.12509,0.55086 -3.00905,0.0609 z m 2.7301,-0.31113 c 0.22868,-0.22867 0.41578,-0.51659 0.41578,-0.63981 0,-0.58762 -0.36973,-1.06108 -0.82861,-1.06108 -0.66548,0 -1.02348,-0.98386 -1.02348,-2.81274 0,-1.70534 0.33841,-2.47893 1.08441,-2.47893 0.44604,0 0.52262,-0.14515 0.45371,-0.85989 -0.0635,-0.65885 -0.22199,-0.87965 -0.67778,-0.94439 -0.39704,-0.0564 -0.64637,-0.32037 -0.74971,-0.79375 -0.29885,-1.36906 -0.33678,-1.40574 -1.36527,-1.32067 -0.91166,0.0754 -1.00129,0.15484 -1.07822,0.95544 -0.0614,0.63937 -0.25627,0.93873 -0.7276,1.11793 -0.87132,0.33128 -0.86182,1.37698 0.0178,1.9533 0.63296,0.41472 0.66146,0.54802 0.66146,3.09349 0,2.58731 0.0212,2.68124 0.7734,3.43348 0.8827,0.8827 2.34705,1.05473 3.04416,0.35762 z m -34.695901,0.0974 c -0.459455,-0.57959 -2.796752,-11.62069 -2.518825,-11.89862 0.137734,-0.13774 0.831871,-0.21346 1.542527,-0.16828 l 1.2921,0.0822 0.320372,1.5875 c 0.176207,0.87313 0.455207,2.28155 0.620007,3.12984 0.1648,0.84829 0.36075,1.48123 0.43543,1.40655 0.0747,-0.0747 0.45333,-1.48311 0.84142,-3.12984 l 0.70564,-2.99405 1.23542,-0.08 c 1.50916,-0.0977 1.52985,-0.066 2.3429,3.5932 0.33234,1.49571 0.69006,2.62681 0.79494,2.51354 0.10488,-0.11327 0.39799,-1.39657 0.65137,-2.85178 0.25337,-1.45521 0.57842,-2.79466 0.72234,-2.97656 0.14527,-0.18361 0.83571,-0.33073 1.55218,-0.33073 1.17268,0 1.29052,0.0559 1.29052,0.61254 0,0.66154 -2.31675,11.23988 -2.54115,11.60298 -0.21505,0.34795 -2.65728,0.25606 -2.9458,-0.11083 -0.14304,-0.1819 -0.53038,-1.46182 -0.86076,-2.84427 -0.33037,-1.38245 -0.68624,-2.60873 -0.79081,-2.72506 -0.10458,-0.11634 -0.53549,1.13382 -0.95758,2.77812 l -0.76744,2.98965 -1.34642,0.0785 c -0.86988,0.0507 -1.442672,-0.0429 -1.618381,-0.26458 z m 2.741161,-0.27693 c 0.11246,-0.18191 0.51283,-1.63263 0.88971,-3.22383 0.37689,-1.59121 0.80234,-2.93214 0.94545,-2.97984 0.14311,-0.0477 0.61706,1.37325 1.05322,3.15768 l 0.79302,3.24442 1.24677,0.0806 c 1.09054,0.0705 1.2786,0.004 1.50082,-0.52917 0.28021,-0.67256 2.39361,-10.33561 2.39361,-10.94425 0,-0.27448 -0.32822,-0.38115 -1.1728,-0.38115 -1.35716,0 -1.22224,-0.25827 -1.99651,3.82175 -0.30224,1.59263 -0.60576,2.95193 -0.67448,3.02066 -0.2616,0.26159 -0.44882,-0.26551 -1.08258,-3.04781 -0.94539,-4.15041 -0.77331,-3.83491 -2.04126,-3.74257 l -1.10216,0.0803 -0.8265,3.38413 c -0.45458,1.86128 -0.89019,3.44783 -0.96803,3.52567 -0.19392,0.19393 -0.3416,-0.36701 -0.9739,-3.6993 -0.300027,-1.5812 -0.61057,-2.98018 -0.690092,-3.10885 -0.18785,-0.30395 -2.15506,-0.30471 -2.342819,-9.1e-4 -0.11857,0.19185 1.973956,10.24532 2.360821,11.34249 0.06978,0.1979 0.591864,0.33073 1.29993,0.33073 0.66121,0 1.27353,-0.14593 1.38778,-0.33073 z"
           id="path4" /><path
           style="fill:#654c25"
           d="m 79.28513,162.47642 c 0.896457,-0.4241 1.681828,-0.93002 1.745269,-1.12428 0.07938,-0.24305 0.106373,-0.22943 0.08657,0.0437 -0.03028,0.41755 -2.384798,1.83546 -3.064882,1.84569 -0.218281,0.003 0.33659,-0.34102 1.233046,-0.76511 z m -2.820546,0.11004 c -0.363802,-0.20797 -0.542396,-0.37812 -0.396875,-0.37812 0.145521,0 0.56224,0.17015 0.926042,0.37812 0.363802,0.20797 0.542396,0.37812 0.396875,0.37812 -0.145521,0 -0.56224,-0.17015 -0.926042,-0.37812 z M 75.009376,161.925 c -0.291042,-0.12506 -1.82948,-0.23576 -3.41875,-0.24598 -2.320271,-0.0149 -2.986668,-0.10646 -3.382342,-0.46454 -0.462458,-0.41852 -0.574516,-0.41654 -1.822331,0.0322 -2.654736,0.95463 -5.650209,-0.0594 -7.00515,-2.37147 -0.853709,-1.45674 -1.175061,-3.30018 -0.575294,-3.30018 0.254696,0 0.46992,0.36063 0.586687,0.98305 0.668301,3.56235 4.058322,5.19461 7.439709,3.58214 0.85978,-0.41 0.923085,-0.40375 1.511758,0.14928 0.58933,0.55365 0.831184,0.5772 5.926854,0.5772 4.431656,0 5.337215,-0.0645 5.461809,-0.38922 0.217336,-0.56637 -0.539179,-1.19828 -1.434557,-1.19828 -0.965065,0 -1.054735,-0.73935 -0.179539,-1.48035 0.594712,-0.50352 0.594845,-0.50347 0.132292,0.046 -0.638747,0.75874 -0.579317,1.1698 0.169126,1.1698 0.34768,0 0.899311,0.21633 1.225846,0.48074 0.505479,0.40932 0.547767,0.56658 0.284586,1.05834 -0.282462,0.52778 -0.513625,0.57758 -2.681055,0.57758 -1.304568,0 -2.371941,0.0762 -2.371941,0.16927 0,0.0931 0.208359,0.32744 0.463021,0.52075 0.527962,0.40078 0.431183,0.43114 -0.330729,0.10373 z m 9.260417,-0.51471 c -0.952054,-0.38966 -1.388711,-1.16823 -2.074908,-3.69959 -0.645978,-2.38299 -0.680484,-2.92945 -0.184978,-2.92945 0.250346,0 1.598427,4.00306 1.598427,4.74644 0,0.82805 0.737978,1.16534 2.596049,1.18652 1.344614,0.0153 1.769576,-0.0682 1.769576,-0.34787 0,-0.42223 -0.486906,-0.72687 -1.500796,-0.939 -0.516249,-0.10801 -0.789733,-0.39848 -1.013467,-1.0764 -0.168532,-0.51066 -0.246714,-1.07626 -0.173738,-1.25689 0.07816,-0.19346 0.141267,-0.13815 0.153572,0.1346 0.02791,0.61863 0.473869,0.59071 0.674763,-0.0422 0.0882,-0.27791 0.35653,-0.66486 0.596284,-0.8599 0.354761,-0.2886 0.341535,-0.19335 -0.07104,0.51161 -0.606845,1.03693 -0.350888,1.64461 0.825191,1.95914 1.333068,0.35652 1.855715,1.61118 1.019498,2.44739 -0.453329,0.45333 -3.243605,0.56301 -4.214434,0.16565 z m -1.430396,-3.53506 c -0.34553,-0.34553 -0.393592,0.0374 -0.09878,0.78699 0.183854,0.46745 0.194128,0.46722 0.289397,-0.006 0.05433,-0.27012 -0.03145,-0.62135 -0.190621,-0.78052 z m 3.679354,1.02268 c 0,-0.0642 -0.119062,-0.19026 -0.264583,-0.2802 -0.145521,-0.0899 -0.264584,-0.0374 -0.264584,0.11668 0,0.15411 0.119063,0.2802 0.264584,0.2802 0.145521,0 0.264583,-0.0525 0.264583,-0.11668 z m -6.35,-0.14791 c -0.311669,-1.04652 -0.517651,-1.95179 -0.457737,-2.01171 0.05991,-0.0599 0.359892,0.75136 0.666618,1.80283 0.306727,1.05147 0.512709,1.95674 0.457737,2.01171 -0.05497,0.055 -0.354949,-0.7563 -0.666618,-1.80283 z m -16.413068,-0.20298 c -0.939192,-0.44877 -1.552302,-1.0666 -2.35608,-2.37419 -0.468771,-0.7626 -1.341759,-1.80549 -1.939974,-2.31754 -0.708627,-0.60656 -0.99751,-1.02116 -0.828962,-1.18971 0.458235,-0.45823 2.106339,0.94694 3.267985,2.78627 1.213181,1.92094 2.351797,2.65041 3.654097,2.34106 1.149433,-0.27305 1.559934,-0.80463 1.915605,-2.48062 0.28896,-1.36164 0.274739,-1.70858 -0.109387,-2.6686 -0.24284,-0.60692 -0.394203,-1.15081 -0.336362,-1.20865 0.05784,-0.0578 0.316604,0.46303 0.57503,1.1575 0.258425,0.69447 0.557775,1.36028 0.665221,1.47959 0.107446,0.1193 1.101197,-1.16062 2.208337,-2.84427 1.107139,-1.68366 2.072512,-3.06119 2.145272,-3.06119 0.07276,0 -0.77938,1.3864 -1.893645,3.08089 -1.38823,2.11112 -2.156765,3.58048 -2.441566,4.66804 -0.289042,1.10376 -0.628026,1.74566 -1.113008,2.10758 -0.733823,0.54762 -2.723574,0.85305 -3.412563,0.52384 z m 14.932328,-2.17827 c 0.02624,-0.67972 0.717656,-0.94539 0.843535,-0.32411 0.03759,0.18554 0.0078,0.2153 -0.06615,0.0661 -0.229458,-0.46267 -0.579274,-0.29922 -0.693669,0.32412 -0.09506,0.51798 -0.105934,0.50939 -0.08372,-0.0661 z m 6.264128,-0.15434 c 0.0127,-0.30822 0.07539,-0.37092 0.159853,-0.15985 0.07643,0.191 0.06703,0.4192 -0.02089,0.50712 -0.08792,0.0879 -0.150452,-0.0684 -0.138963,-0.34727 z m 13.472863,0.18483 c 0,-0.12876 0.625078,-0.3095 1.389062,-0.40166 1.665896,-0.20095 49.964616,-0.17804 51.196876,0.0243 3.03693,0.49865 -1.73495,0.61147 -25.86302,0.61147 -15.31883,0 -26.722918,-0.0999 -26.722918,-0.2341 z m -10.364939,-2.65398 c 0.534726,-1.15188 1.017347,-2.04934 1.072491,-1.99436 0.121304,0.12095 -1.741265,4.08869 -1.919345,4.08869 -0.06896,0 0.312128,-0.94245 0.846854,-2.09433 z m -3.372507,1.41082 c 0.0127,-0.30823 0.07539,-0.37092 0.159852,-0.15985 0.07643,0.19099 0.06703,0.41919 -0.02089,0.50711 -0.08792,0.0879 -0.150453,-0.0684 -0.138964,-0.34726 z m -0.264584,-1.05834 c 0.0127,-0.30822 0.07539,-0.37091 0.159853,-0.15985 0.07643,0.191 0.06703,0.4192 -0.02089,0.50712 -0.08792,0.0879 -0.150453,-0.0684 -0.138965,-0.34727 z m -0.243695,-1.16857 c 0,-0.3638 0.06005,-0.51263 0.133452,-0.33073 0.0734,0.1819 0.0734,0.47956 0,0.66146 -0.0734,0.1819 -0.133452,0.0331 -0.133452,-0.33073 z m -0.239636,-1.71979 c 0.0029,-0.58209 0.05712,-0.78906 0.120406,-0.45994 0.06329,0.32912 0.06088,0.80537 -0.0053,1.05833 -0.06622,0.25297 -0.118004,-0.0163 -0.115067,-0.59839 z m 52.902859,0.60854 c -0.33522,-0.33523 -0.47496,-9.81222 -0.1569,-10.64107 0.11258,-0.29336 0.50667,-0.41852 1.31788,-0.41852 1.31171,0 1.37578,0.11278 1.49564,2.63249 l 0.0686,1.44185 1.55803,-2.03717 1.55803,-2.03717 h 1.41853 c 1.00773,0 1.41854,0.10246 1.41854,0.35378 0,0.19458 -0.77391,1.33606 -1.7198,2.53663 -0.94588,1.20056 -1.71979,2.09954 -1.71979,1.99773 0,-0.10181 0.71438,-1.08006 1.5875,-2.17387 0.87313,-1.09382 1.5875,-2.09247 1.5875,-2.21922 0,-0.12675 -0.56554,-0.22979 -1.25677,-0.22898 -1.25081,10e-4 -1.26403,0.0109 -2.78765,1.98438 -0.84198,1.09059 -1.64044,1.98289 -1.77435,1.98289 -0.1339,0 -0.27844,-0.86321 -0.3212,-1.91823 l -0.0777,-1.91823 h -1.05833 -1.05833 v 5.29167 5.29166 h 1.05833 1.05833 l 0.1323,-1.64062 c 0.0728,-0.90234 0.27311,-1.78135 0.44523,-1.95336 0.41627,-0.41599 1.03788,-0.14987 1.4073,0.60248 0.28872,0.58799 0.2806,0.5866 -0.22232,-0.0382 -0.78225,-0.97175 -1.36563,-0.36444 -1.36563,1.42164 0,1.57934 -0.30888,2.0049 -1.45521,2.0049 -0.45111,0 -0.96308,-0.14288 -1.13771,-0.3175 z m 5.84437,-0.1926 c -0.26033,-0.28055 -0.6986,-0.90563 -0.97394,-1.38906 -0.57618,-1.01164 -0.31499,-0.78088 0.72711,0.64239 0.62383,0.85199 0.87191,0.99218 1.75573,0.99218 0.56609,0 1.0904,-0.0989 1.16512,-0.21984 0.0747,-0.12091 -0.25584,-0.80552 -0.7346,-1.52135 -1.51901,-2.27118 -1.8154,-2.75672 -1.68278,-2.75672 0.30803,0 2.87372,4.23239 2.71822,4.48399 -0.3076,0.49771 -2.45312,0.33068 -2.97486,-0.23159 z m 5.0537,0.13247 c -0.31943,-0.83242 0.0241,-1.59461 0.82298,-1.82594 1.88738,-0.54653 2.77675,-1.32693 1.80057,-1.57998 -0.3774,-0.0978 -0.3527,-0.13026 0.11765,-0.15451 0.35366,-0.0182 0.59532,0.12262 0.59532,0.34698 0,0.48534 -1.25184,1.47441 -1.86613,1.47441 -0.92682,0 -1.30887,0.31719 -1.30887,1.08664 0,0.69973 0.0802,0.76544 0.93454,0.76544 2.01407,0 3.84959,-1.41983 4.49001,-3.47315 0.19849,-0.63638 0.36885,-0.95645 0.37858,-0.71126 0.0523,1.31723 -1.53458,3.41941 -3.08266,4.08367 -1.12241,0.48162 -2.69503,0.4749 -2.88199,-0.0123 z m -81.178963,-1.36106 c -0.09732,-0.38775 -0.125917,-0.75603 -0.06355,-0.8184 0.06237,-0.0624 0.193018,0.20386 0.290337,0.59161 0.09732,0.38775 0.125917,0.75603 0.06355,0.8184 -0.06237,0.0624 -0.193017,-0.20386 -0.290337,-0.59161 z m 22.888449,-0.26774 c 0.0127,-0.30822 0.07539,-0.37091 0.159852,-0.15985 0.07643,0.191 0.06703,0.4192 -0.02089,0.50712 -0.08792,0.0879 -0.150452,-0.0684 -0.138964,-0.34727 z m -5.245831,-1.03628 c 0.0029,-0.58208 0.05712,-0.78905 0.120405,-0.45994 0.06329,0.32912 0.06088,0.80537 -0.0053,1.05834 -0.06622,0.25296 -0.118003,-0.0163 -0.115066,-0.5984 z m 5.531303,-0.13229 c 0,-0.3638 0.06005,-0.51263 0.133452,-0.33073 0.0734,0.1819 0.0734,0.47956 0,0.66146 -0.0734,0.1819 -0.133452,0.0331 -0.133452,-0.33073 z M 66.18761,148.69583 c 0,-0.3638 0.06005,-0.51263 0.133452,-0.33072 0.0734,0.1819 0.0734,0.47955 0,0.66145 -0.0734,0.18191 -0.133452,0.0331 -0.133452,-0.33073 z m 81.02656,-1.16416 c -0.49477,-0.49477 -0.89914,-1.06032 -0.89859,-1.25677 5.4e-4,-0.19646 0.24101,0.0365 0.53437,0.51767 0.29337,0.48117 0.918,1.04206 1.38808,1.24641 0.54901,0.23867 0.67962,0.37526 0.3652,0.38192 -0.26921,0.006 -0.89429,-0.39446 -1.38906,-0.88923 z m -57.214059,0.10583 c 0,-0.3638 0.06005,-0.51263 0.133452,-0.33073 0.0734,0.1819 0.0734,0.47956 0,0.66146 -0.0734,0.1819 -0.133452,0.0331 -0.133452,-0.33073 z m -17.079261,0 c 0.113493,-0.21828 0.61033,-1.03226 1.104081,-1.80885 0.493752,-0.77659 1.195455,-2.02674 1.559342,-2.77813 0.363886,-0.75138 0.600977,-1.09089 0.526869,-0.75447 -0.157241,0.71381 -2.070637,4.11449 -2.856504,5.07687 -0.297077,0.3638 -0.447282,0.48286 -0.333788,0.26458 z m -6.978216,-0.79375 c 0,-0.50932 0.05445,-0.71768 0.121,-0.46302 0.06655,0.25466 0.06655,0.67138 0,0.92604 -0.06655,0.25466 -0.121,0.0463 -0.121,-0.46302 z m 18.480338,0.37483 c 0.0127,-0.30823 0.07539,-0.37092 0.159853,-0.15985 0.07643,0.19099 0.06703,0.41919 -0.02089,0.50711 -0.08792,0.0879 -0.150453,-0.0684 -0.138965,-0.34726 z m 69.379238,-1.43316 c 0,-0.80037 0.0496,-1.12779 0.11022,-0.72761 0.0606,0.40019 0.0606,1.05503 0,1.45521 -0.0606,0.40018 -0.11022,0.0728 -0.11022,-0.7276 z m -63.521015,-2.67958 c -0.06217,-4.12879 -0.06746,-4.1452 -1.513486,-4.69481 l -0.79375,-0.30169 0.79375,0.15055 c 1.625929,0.3084 1.743821,0.65741 1.653355,4.89462 l -0.08159,3.82153 z m -6.113002,3.16424 c -0.01688,-0.24276 -0.09921,-0.65948 -0.182961,-0.92604 -0.144325,-0.45938 -0.136495,-0.46007 0.150091,-0.0133 0.166298,0.25923 0.248631,0.67595 0.182961,0.92604 -0.107565,0.40964 -0.122441,0.41096 -0.150091,0.0133 z m 65.850557,0.12205 c 0.36381,-0.0632 0.81029,-0.30791 0.99219,-0.54371 0.1819,-0.2358 0.33073,-0.31072 0.33073,-0.16649 0,0.48389 -0.62908,0.89755 -1.30969,0.86121 l -0.67468,-0.036 z m -3.89668,-1.66505 c 0,-0.65484 0.0516,-0.92273 0.11466,-0.59531 0.0631,0.32742 0.0631,0.86321 0,1.19063 -0.0631,0.32742 -0.11466,0.0595 -0.11466,-0.59532 z m 2.47416,0.65123 c -0.0907,-0.23645 -0.15474,-0.62854 -0.14223,-0.8713 0.0125,-0.24276 0.12763,-0.0902 0.25583,0.33907 0.24941,0.83509 0.16121,1.24836 -0.1136,0.53223 z m -82.929462,-2.78347 c -0.04002,-2.44285 0.03371,-3.16163 0.366395,-3.57187 0.229072,-0.28248 0.318369,-0.335 0.198437,-0.11672 -0.119932,0.21828 -0.284809,1.82563 -0.366395,3.57188 l -0.148336,3.175 z m 17.399319,1.04827 c -0.304151,-0.59618 -0.50762,-1.12935 -0.452154,-1.18482 0.05547,-0.0555 0.359881,0.43232 0.676477,1.08397 0.721067,1.48418 0.526111,1.57182 -0.224323,0.10085 z m 68.041693,0.40929 c -0.0683,-1.20759 -1.31064,-1.57366 -2.00007,-0.58936 -0.22653,0.32342 -0.41187,0.45099 -0.41187,0.28348 0,-0.46195 0.77188,-1.1361 1.30081,-1.1361 0.64616,0 1.4182,0.91531 1.26661,1.50167 -0.10898,0.42154 -0.12868,0.41398 -0.15548,-0.0597 z m 2.37145,-0.27341 c 0.0127,-0.30822 0.0754,-0.37091 0.15985,-0.15985 0.0764,0.191 0.067,0.4192 -0.0209,0.50712 -0.0879,0.0879 -0.15045,-0.0684 -0.13896,-0.34727 z m -7.16365,-0.46629 c -0.004,-0.79639 1.75698,-2.5569 2.55337,-2.55338 0.12307,5.5e-4 -0.16428,0.23758 -0.63855,0.52675 -0.47428,0.28917 -1.09891,0.9138 -1.38808,1.38808 -0.28916,0.47427 -0.5262,0.76162 -0.52674,0.63855 z m 6.40817,-1.1765 -0.6023,-0.98099 0.66845,0.74236 c 0.36764,0.4083 0.66844,0.85478 0.66844,0.99219 0,0.38906 -0.0893,0.29746 -0.73459,-0.75356 z m -70.402981,-0.93224 c -0.04221,-1.20534 0.295838,-1.91816 1.095192,-2.3094 0.535754,-0.26222 0.53057,-0.24116 -0.05711,0.23201 -0.455078,0.36641 -0.699087,0.90018 -0.824545,1.8037 -0.169602,1.22143 -0.179893,1.23462 -0.213541,0.27369 z m -6.309677,-0.8425 c 0.002,-0.7276 0.05337,-0.99386 0.114185,-0.59168 0.06082,0.40219 0.05919,0.9975 -0.0036,1.32292 -0.0628,0.32542 -0.11256,-0.004 -0.110574,-0.73124 z m 75.543508,0.78619 c -0.0769,-0.0769 -0.66231,-0.25224 -1.30087,-0.3896 l -1.16102,-0.24974 1.15652,0.10413 c 0.63608,0.0573 1.28497,0.23259 1.44198,0.3896 0.157,0.157 0.22196,0.28546 0.14435,0.28546 -0.0776,0 -0.20404,-0.0629 -0.28096,-0.13985 z m -75.346496,-2.37369 c 0,-0.14552 0.115416,-0.44318 0.25648,-0.66146 0.141064,-0.21828 0.25648,-0.27781 0.25648,-0.13229 0,0.14552 -0.115416,0.44318 -0.25648,0.66146 -0.141064,0.21828 -0.25648,0.27781 -0.25648,0.13229 z m 8.657001,-0.95206 c 0.472943,-0.50887 0.859896,-1.19059 0.859896,-1.51495 0,-0.55331 -0.102131,-0.58608 -1.653646,-0.53072 -0.909505,0.0325 -2.070365,-0.1015 -2.579687,-0.29768 -1.490284,-0.57403 -1.693761,-0.62566 -2.209261,-0.5606 -0.269208,0.034 -0.662912,-0.18585 -0.874899,-0.4885 -0.82708,-1.18083 -1.332647,-0.35615 -1.446877,2.36013 -0.02709,0.64423 -0.0743,0.74138 -0.155114,0.31922 -0.09004,-0.47034 -0.245585,-0.57503 -0.691573,-0.46546 -0.316471,0.0778 -0.426574,0.073 -0.244673,-0.0105 0.189613,-0.0871 0.33073,-0.6364 0.33073,-1.2874 0,-2.61674 0.48781,-3.29161 1.743507,-2.41209 0.350832,0.24574 0.670838,0.29322 0.918767,0.13635 0.611272,-0.38679 0.892569,-0.29293 1.341999,0.44777 0.697854,1.15013 2.826021,1.76784 4.599833,1.33512 1.199105,-0.29251 1.839963,0.29126 1.786676,1.62753 -0.03719,0.93266 0.04827,1.10508 0.670275,1.35227 l 0.712901,0.28332 -0.791099,-0.15486 c -0.435105,-0.0852 -0.868681,-0.28037 -0.963501,-0.4338 -0.107652,-0.17418 -0.555819,0.003 -1.193276,0.47058 l -1.020874,0.74952 z m -5.076735,-4.44521 c -0.233634,-0.37803 -0.435758,-0.35763 -1.047942,0.10575 -0.423427,0.3205 -0.447615,0.44606 -0.154068,0.79976 0.315333,0.37995 0.397023,0.37076 0.865119,-0.0973 0.284298,-0.2843 0.435899,-0.64798 0.336891,-0.80818 z m -2.420904,0.0779 c 0.484368,-0.18587 0.302716,-0.63374 -0.257039,-0.63374 -0.209693,0 -0.38126,0.1786 -0.38126,0.39688 0,0.44511 0.0486,0.46315 0.638299,0.23686 z m -8.708091,4.39335 c 0.291042,-0.12507 0.767292,-0.22389 1.058334,-0.21962 0.425393,0.006 0.39945,0.0493 -0.132292,0.21962 -0.904655,0.28972 -1.600259,0.28972 -0.926042,0 z m 1.934766,-0.44533 c 0.190996,-0.0764 0.419199,-0.067 0.507118,0.0209 0.08792,0.0879 -0.06835,0.15045 -0.347265,0.13897 -0.308225,-0.0127 -0.37092,-0.0754 -0.159853,-0.15986 z m 1.174089,-0.26622 c 0.254661,-0.0666 0.67138,-0.0666 0.926041,0 0.254662,0.0666 0.0463,0.121 -0.46302,0.121 -0.509323,0 -0.717683,-0.0545 -0.463021,-0.121 z m 1.984375,-0.26893 c 0.327422,-0.0631 0.863203,-0.0631 1.190625,0 0.327422,0.0631 0.05953,0.11466 -0.595313,0.11466 -0.654844,0 -0.922734,-0.0516 -0.595312,-0.11466 z"
           id="path3" /><path
           style="fill:#453b26"
           d="m 76.200001,162.71875 c -1.565015,-0.70883 -1.982377,-0.7796 -4.637483,-0.78634 -2.229341,-0.006 -3.059365,-0.10664 -3.518201,-0.42802 -0.548849,-0.38443 -0.690943,-0.38443 -1.651726,0 -3.050257,1.22047 -6.941293,-0.65151 -7.882254,-3.79216 -0.36351,-1.21329 -0.390339,-2.31599 -0.0613,-2.51935 0.545699,-0.33726 1.036444,0.21302 1.20755,1.35403 0.133487,0.89016 0.457007,1.50131 1.250316,2.36195 1.680274,1.82289 3.327015,2.05388 6.222089,0.87281 0.773414,-0.31552 0.906877,-0.2945 1.466112,0.23087 0.583657,0.54832 0.886333,0.58199 5.896005,0.65584 l 5.280764,0.0778 -5.406906,0.0602 c -5.234557,0.0583 -5.42649,0.0418 -6.021307,-0.51698 -0.588673,-0.55303 -0.651978,-0.55928 -1.511758,-0.14928 -2.066704,0.98554 -4.161123,0.8012 -5.710628,-0.50262 -0.960078,-0.80785 -1.474939,-1.72483 -1.729081,-3.07952 -0.116767,-0.62242 -0.331991,-0.98305 -0.586687,-0.98305 -0.599767,0 -0.278415,1.84344 0.575294,3.30018 1.354941,2.31203 4.350414,3.3261 7.00515,2.37147 1.247815,-0.44871 1.359873,-0.45069 1.822331,-0.0322 0.3978,0.36 1.041058,0.44594 3.337994,0.44594 2.603762,0 3.003906,0.0696 4.714825,0.82057 l 1.86959,0.82056 1.292018,-0.60514 c 1.826106,-0.85531 1.93834,-1.05339 1.43456,-2.5319 -0.584001,-1.71395 -0.496628,-2.11952 0.10523,-0.48847 0.74962,2.0315 0.708334,2.1509 -1.050788,3.0389 -0.868976,0.43866 -1.672648,0.79423 -1.785938,0.79015 -0.11329,-0.004 -0.979889,-0.35793 -1.925774,-0.78634 z m 7.759895,-1.17391 c -1.045073,-0.4615 -1.184447,-0.7287 -2.055721,-3.94119 -0.553549,-2.041 -0.637937,-2.68306 -0.391648,-2.97982 0.236261,-0.28468 0.402524,-0.30475 0.672,-0.0811 0.35954,0.29839 1.495321,3.69479 1.300662,3.88945 -0.05716,0.0572 -0.355539,-0.74091 -0.663057,-1.7735 -0.519629,-1.74482 -0.837585,-2.19629 -1.169053,-1.65996 -0.07392,0.11961 0.168019,1.34 0.537645,2.71198 0.860747,3.19493 1.352725,3.74069 3.512917,3.89695 2.096194,0.15162 2.885259,-0.0666 3.082537,-0.85266 0.225332,-0.89779 -0.289707,-1.69272 -1.259559,-1.94403 -1.237429,-0.32065 -1.50454,-0.92141 -0.877171,-1.97285 0.284275,-0.47643 0.90424,-1.58061 1.377699,-2.45373 0.473459,-0.87313 0.86354,-1.49425 0.866845,-1.38027 0.0087,0.30117 -1.297696,2.84433 -1.899112,3.6969 -0.69191,0.98086 -0.526385,1.52443 0.573276,1.88258 0.526895,0.17161 1.089776,0.60829 1.322916,1.02631 0.3647,0.6539 0.364682,0.8013 -1.76e-4,1.45521 -0.376007,0.67388 -0.542047,0.73213 -2.248959,0.78893 -1.133121,0.0377 -2.166158,-0.0814 -2.682041,-0.3092 z m 0.839063,-0.86378 c -0.73126,-0.18783 -1.190625,-0.59939 -1.190625,-1.06672 0,-0.26996 0.156996,-0.19991 0.499259,0.22276 0.413206,0.51029 0.754204,0.61795 1.978398,0.62463 1.620177,0.009 2.022457,-0.41779 0.657235,-0.69701 -0.908109,-0.18573 -1.561374,-0.83976 -1.526503,-1.52831 0.01149,-0.22685 0.140553,-0.0848 0.286811,0.31569 0.171943,0.47081 0.51521,0.78028 0.971299,0.87566 1.01219,0.21167 1.499126,0.51654 1.499126,0.93858 0,0.38366 -2.097248,0.59155 -3.175,0.31472 z m -5.302546,-0.62574 c -0.09592,-0.15521 -0.117656,-0.33894 -0.0483,-0.40829 0.06936,-0.0694 0.196603,0.0576 0.282774,0.28219 0.178907,0.46622 0.02642,0.54823 -0.234473,0.1261 z m -2.238079,-1.13202 c 0,-0.34125 0.231691,-0.83013 0.514868,-1.0864 0.285676,-0.25853 0.550678,-0.89513 0.595313,-1.43007 0.06823,-0.81769 0.176472,-0.96412 0.712699,-0.96412 0.520221,0 0.695321,0.21097 0.988171,1.19063 0.507153,1.69654 0.409998,1.96729 -0.142416,0.39687 -0.532252,-1.5131 -1.17141,-1.75543 -1.29427,-0.49073 -0.04446,0.45771 -0.312354,1.04171 -0.595312,1.29778 -0.809632,0.73271 -0.659694,1.39036 0.345426,1.51509 0.84662,0.10507 0.844578,0.10737 -0.132291,0.14906 -0.876496,0.0374 -0.992188,-0.03 -0.992188,-0.57811 z m -14.022917,-0.37215 c -0.590574,-0.29502 -1.331102,-1.0837 -2.04419,-2.17712 -0.614981,-0.94298 -1.558113,-2.08388 -2.095847,-2.53533 -0.970123,-0.81447 -1.117025,-1.70328 -0.281517,-1.70328 0.650067,0 2.52658,1.84455 3.490066,3.43062 0.69246,1.13991 1.177912,1.63622 1.799754,1.84 1.1262,0.36907 2.354759,0.0177 2.765854,-0.79115 0.209284,-0.41175 0.328232,-0.49124 0.33073,-0.221 0.0051,0.55183 -0.738192,1.18301 -1.647518,1.39902 -1.3023,0.30935 -2.440916,-0.42012 -3.654097,-2.34106 -1.161646,-1.83933 -2.80975,-3.2445 -3.267985,-2.78627 -0.168548,0.16855 0.125918,0.58793 0.844982,1.20342 0.607026,0.51959 1.474525,1.56249 1.927777,2.31754 1.145178,1.90772 1.919967,2.43117 3.598526,2.43117 1.77763,0 2.743887,-0.68747 3.195826,-2.27375 l 0.332153,-1.16583 -0.122406,1.025 c -0.273081,2.28673 -2.903961,3.48109 -5.172108,2.34802 z m 21.220389,-3.28238 c -0.325274,-1.35954 -0.58174,-2.65049 -0.569924,-2.86877 0.01182,-0.21828 0.314136,0.78551 0.671821,2.23065 0.357686,1.44514 0.614151,2.73608 0.569924,2.86876 -0.04423,0.13269 -0.346546,-0.87111 -0.671821,-2.23064 z m 15.622844,1.68459 c -1.947068,-0.0685 -2.182815,-0.13154 -2.182815,-0.58332 0,-0.36318 0.243294,-0.5504 0.859896,-0.66172 0.472942,-0.0854 12.611399,-0.12054 26.974339,-0.0781 21.17412,0.0625 26.1795,0.14304 26.45833,0.42564 0.2825,0.28632 0.26041,0.41022 -0.12372,0.69399 -0.37761,0.27895 -5.21602,0.33919 -25.13542,0.31292 -13.56729,-0.0179 -25.65007,-0.0671 -26.85061,-0.10938 z m 51.79219,-0.55516 c 0,-0.12933 -0.38696,-0.29868 -0.8599,-0.37633 -1.23226,-0.20233 -49.53098,-0.22524 -51.196876,-0.0243 -0.763984,0.0922 -1.389062,0.2729 -1.389062,0.40166 0,0.13419 11.404088,0.2341 26.722918,0.2341 15.40792,0 26.72292,-0.0996 26.72292,-0.23514 z m -84.497563,-1.54298 c 0.0959,-0.76851 -0.03248,-1.5759 -0.411758,-2.58962 -0.303106,-0.81012 -0.544598,-1.61731 -0.536648,-1.79375 0.008,-0.17644 0.318215,0.50328 0.689479,1.5105 0.581654,1.57801 0.63661,1.98058 0.397304,2.91042 l -0.277721,1.07911 z m 1.161852,0.0284 c -0.0044,-0.162 1.316453,-2.30341 2.935285,-4.75869 3.797242,-5.75926 4.55038,-7.11659 4.755249,-8.57003 l 0.168218,-1.19341 0.03535,1.03636 c 0.0438,1.2841 -0.869813,3.00046 -4.588902,8.62093 -1.492522,2.25557 -2.844959,4.33917 -3.005416,4.63021 -0.160456,0.29104 -0.29536,0.39662 -0.299785,0.23463 z m 31.675811,-1.08281 c 0.32742,-0.0631 0.8632,-0.0631 1.19062,0 0.32743,0.0631 0.0595,0.11466 -0.59531,0.11466 -0.65484,0 -0.922733,-0.0516 -0.59531,-0.11466 z m 5.32406,-0.2763 c -0.31722,-0.40449 -0.31229,-0.42351 0.0389,-0.15048 0.22114,0.17189 0.93551,0.35945 1.5875,0.41679 l 1.18544,0.10426 -1.22438,0.0462 c -0.89091,0.0336 -1.32327,-0.0799 -1.5875,-0.4168 z m 7.02857,-0.92604 -0.77711,-0.8599 0.8599,0.77711 c 0.80154,0.72437 0.98151,0.94269 0.7771,0.94269 -0.0455,0 -0.43249,-0.38696 -0.85989,-0.8599 z m 6.63122,0.33073 c 0.26339,-0.29104 0.53842,-0.52917 0.61118,-0.52917 0.0728,0 -0.0832,0.23813 -0.34659,0.52917 -0.26339,0.29104 -0.53842,0.52917 -0.61118,0.52917 -0.0728,0 0.0832,-0.23813 0.34659,-0.52917 z m 1.96435,-0.19844 -0.64143,-0.7276 0.7276,0.64143 c 0.68006,0.59952 0.84894,0.81378 0.64144,0.81378 -0.0474,0 -0.37482,-0.32743 -0.72761,-0.72761 z m 6.37003,0.36313 c 0,-0.055 0.20836,-0.2633 0.46302,-0.46302 0.41964,-0.32911 0.429,-0.31975 0.0999,0.0999 -0.34565,0.44073 -0.56292,0.58089 -0.56292,0.36313 z m 2.50266,-0.44688 c -0.0959,-0.1552 -0.11765,-0.33893 -0.0483,-0.40828 0.0694,-0.0694 0.1966,0.0576 0.28277,0.28218 0.17891,0.46623 0.0264,0.54823 -0.23447,0.1261 z m -40.98092,-0.37927 c 0.468603,-1.56064 1.174728,-4.52228 1.192896,-5.00326 0.01149,-0.30415 0.08216,-0.40051 0.157045,-0.21415 0.173907,0.43279 -0.613861,3.91033 -1.121964,4.95283 -0.212776,0.43656 -0.315366,0.55562 -0.227977,0.26458 z m 47.62528,-0.28348 c -0.34916,-0.34916 -0.41577,-1.23127 -0.41577,-5.50568 0,-5.90013 0.0515,-6.06635 1.84111,-5.93663 0.67261,0.0488 1.18858,0.22594 1.22734,0.42147 0.0368,0.18554 0.006,0.2153 -0.0676,0.0661 -0.22625,-0.45619 -2.39157,-0.33234 -2.57564,0.14732 -0.0883,0.23018 -0.1606,2.64715 -0.1606,5.37104 0,5.38833 0.0519,5.58753 1.45521,5.58753 0.45112,0 0.96308,-0.14288 1.13771,-0.3175 0.21241,-0.21241 0.3175,-0.22178 0.3175,-0.0283 0,0.68978 -2.1149,0.83895 -2.75923,0.19462 z m 5.97114,-0.0765 c -0.27074,-0.27074 -0.8942,-1.16425 -1.38545,-1.98557 -0.49126,-0.82133 -1.01388,-1.45377 -1.16139,-1.40543 -0.14751,0.0483 -0.33809,0.73349 -0.42351,1.52256 l -0.15531,1.43466 -0.0431,-1.33615 c -0.0391,-1.21079 0.26348,-1.97114 0.78438,-1.97114 0.10588,0 0.62665,0.71467 1.15726,1.58816 0.53062,0.87348 1.14306,1.76645 1.36098,1.98437 0.45811,0.45811 2.61794,0.54264 2.88356,0.11286 0.0963,-0.15585 -0.47132,-1.25718 -1.26142,-2.4474 -0.7901,-1.19022 -1.63954,-2.4763 -1.88765,-2.85795 -0.45009,-0.69233 -0.44718,-0.69892 1.27703,-2.88737 0.95048,-1.2064 1.72815,-2.35265 1.72815,-2.54723 0,-0.25132 -0.41081,-0.35378 -1.41854,-0.35378 h -1.41853 l -1.51991,1.98438 c -0.83595,1.09141 -1.56683,1.98437 -1.62417,1.98437 -0.0574,0 -0.0852,-0.50601 -0.0619,-1.12447 0.038,-1.00872 0.0535,-1.03373 0.15067,-0.24295 l 0.10833,0.88154 1.46548,-1.88607 1.46548,-1.88608 1.49013,0.0785 c 1.09081,0.0575 1.51094,0.18799 1.56777,0.48709 0.0427,0.22474 -0.70404,1.40075 -1.65943,2.61338 -1.73328,2.19997 -1.73608,2.20629 -1.28595,2.89869 0.24811,0.38165 1.10171,1.67398 1.8969,2.87183 1.20736,1.81878 1.3908,2.24418 1.11234,2.57969 -0.48802,0.58803 -2.52222,0.52945 -3.14215,-0.0905 z m 5.16034,0.28895 c -0.0691,-0.11181 0.34058,-0.15884 0.91042,-0.1045 0.56985,0.0543 1.03608,0.14584 1.03608,0.20331 0,0.19707 -1.82076,0.10465 -1.9465,-0.0988 z m -38.77845,-0.4802 c 0.0127,-0.30822 0.0754,-0.37091 0.15986,-0.15985 0.0764,0.191 0.067,0.4192 -0.0209,0.50712 -0.0879,0.0879 -0.15046,-0.0684 -0.13897,-0.34727 z M 83.659914,151.2094 c 0.0054,-0.43657 0.06469,-0.58313 0.131774,-0.3257 0.06708,0.25743 0.06267,0.61462 -0.0098,0.79375 -0.07248,0.17913 -0.127362,-0.0315 -0.12197,-0.46805 z m 35.458396,-0.19408 c -0.53003,-0.53003 -0.652,-0.55292 -1.18327,-0.22207 -0.54186,0.33744 -0.56139,0.33143 -0.2292,-0.0705 0.5004,-0.60549 0.8945,-0.55151 1.62125,0.22207 0.77087,0.82056 0.59924,0.87853 -0.20878,0.0705 z m 5.16971,0.41572 c 0.1819,-0.0734 0.47956,-0.0734 0.66146,0 0.1819,0.0734 0.0331,0.13346 -0.33073,0.13346 -0.3638,0 -0.51263,-0.0601 -0.33073,-0.13346 z m 5.35782,-2.20602 c 0,-2.20486 -0.0392,-2.38125 -0.52917,-2.38125 -0.29104,0 -0.52917,-0.10993 -0.52917,-0.24428 0,-0.13436 -0.32323,-0.64037 -0.71829,-1.12448 -0.47587,-0.58314 -0.52978,-0.71847 -0.15973,-0.401 0.43071,0.36951 0.59034,0.39979 0.6974,0.13229 0.0764,-0.1908 0.14825,-0.0165 0.15973,0.38725 0.0151,0.52921 0.20554,0.80436 0.68235,0.98564 0.63812,0.24261 0.66146,0.33575 0.66146,2.63928 0,1.31329 -0.0595,2.3878 -0.13229,2.3878 -0.0728,0 -0.13229,-1.07156 -0.13229,-2.38125 z m 17.76886,1.85208 c 0,-0.3638 0.06,-0.51263 0.13345,-0.33072 0.0734,0.1819 0.0734,0.47955 0,0.66145 -0.0734,0.18191 -0.13345,0.0331 -0.13345,-0.33073 z m 4.70648,-0.36368 c 0.50149,-0.52758 0.95072,-0.95923 0.99828,-0.95923 0.26843,0 -0.8842,1.39061 -1.35224,1.63143 -0.37446,0.19267 -0.2581,-0.0283 0.35396,-0.6722 z m -36.16753,0.44588 c 0.25466,-0.0666 0.67138,-0.0666 0.92604,0 0.25466,0.0666 0.0463,0.121 -0.46302,0.121 -0.50932,0 -0.71768,-0.0545 -0.46302,-0.121 z m -1.00307,-0.36438 c -0.0959,-0.1552 -0.11765,-0.33893 -0.0483,-0.40829 0.0694,-0.0693 0.1966,0.0576 0.28277,0.28219 0.17891,0.46622 0.0264,0.54823 -0.23447,0.1261 z m 7.15463,-0.50977 c -1.02307,-0.14591 -1.03177,-0.15544 -0.26115,-0.28592 0.43845,-0.0742 1.0933,-0.065 1.45521,0.0206 1.00228,0.23699 0.066,0.44503 -1.19406,0.26531 z m -38.165569,-0.92784 c 0.0029,-0.58208 0.05712,-0.78905 0.120406,-0.45993 0.06329,0.32912 0.06088,0.80537 -0.0053,1.05833 -0.06622,0.25297 -0.118004,-0.0163 -0.115067,-0.5984 z m 35.387449,0.82206 c 0,-0.0572 0.18477,-0.17489 0.41061,-0.26155 0.23546,-0.0904 0.34166,-0.046 0.24897,0.10398 -0.15538,0.25141 -0.65958,0.37186 -0.65958,0.15757 z m 28.50444,-0.19343 c 0.17948,-0.18082 0.39297,-0.26212 0.47443,-0.18065 0.0815,0.0815 -0.0654,0.2294 -0.32632,0.32876 -0.37708,0.14359 -0.40747,0.1132 -0.14811,-0.14811 z m -81.664808,-0.38609 c 0.0127,-0.30823 0.07539,-0.37092 0.159852,-0.15985 0.07643,0.19099 0.06703,0.41919 -0.02089,0.50711 -0.08792,0.0879 -0.150453,-0.0684 -0.138964,-0.34726 z m 43.391668,-0.26459 c 0.0127,-0.30822 0.0754,-0.37091 0.15985,-0.15985 0.0764,0.191 0.067,0.4192 -0.0209,0.50712 -0.0879,0.0879 -0.15045,-0.0684 -0.13896,-0.34727 z m 40.19578,-0.0159 c 0.83571,-0.37367 0.87442,-0.43537 0.39688,-0.6325 -0.50325,-0.20775 -0.50001,-0.21936 0.0661,-0.23704 0.32742,-0.0102 0.59531,0.0937 0.59531,0.23098 0,0.3443 -1.08718,1.07562 -1.58022,1.06298 -0.22228,-0.006 0.0126,-0.19668 0.52189,-0.42442 z m -29.58175,-0.49126 c 0.005,-0.43657 0.0647,-0.58313 0.13177,-0.3257 0.0671,0.25743 0.0627,0.61462 -0.01,0.79375 -0.0725,0.17913 -0.12737,-0.0315 -0.12197,-0.46805 z m 7.4639,0.0661 -0.50403,-0.59531 0.59532,0.50403 c 0.32742,0.27721 0.59531,0.5451 0.59531,0.59531 0,0.21173 -0.21294,0.0554 -0.6866,-0.50403 z M 97.916723,148.806 c 0.0127,-0.30823 0.07539,-0.37092 0.159852,-0.15985 0.07643,0.19099 0.06703,0.41919 -0.02089,0.50711 -0.08792,0.0879 -0.150452,-0.0683 -0.138964,-0.34726 z M 65.93283,148.29896 c 0.0054,-0.43656 0.06469,-0.58312 0.131774,-0.32569 0.06708,0.25743 0.06267,0.61461 -0.0098,0.79375 -0.07247,0.17913 -0.127362,-0.0315 -0.12197,-0.46806 z m 54.83858,0.11469 c -0.0959,-0.1552 -0.11765,-0.33893 -0.0483,-0.40829 0.0694,-0.0693 0.19661,0.0576 0.28278,0.28219 0.1789,0.46622 0.0264,0.54823 -0.23448,0.1261 z m 26.83244,-0.1633 c -0.73979,-0.45913 -1.56066,-1.65103 -1.54349,-2.24117 0.006,-0.19583 0.16802,0.001 0.36073,0.4377 0.43772,0.99164 1.20053,1.68334 2.18017,1.97691 0.53323,0.15979 0.60009,0.23119 0.22687,0.24226 -0.29104,0.009 -0.84197,-0.17843 -1.22428,-0.4157 z m -43.73788,-0.27071 c -0.14358,-0.37708 -0.11319,-0.40747 0.14811,-0.14811 0.18082,0.17947 0.26212,0.39297 0.18066,0.47443 -0.0815,0.0815 -0.22941,-0.0654 -0.32877,-0.32632 z m -19.667085,-0.60672 c 0,-0.50932 0.05445,-0.71768 0.121,-0.46302 0.06655,0.25466 0.06655,0.67138 0,0.92604 -0.06655,0.25466 -0.121,0.0463 -0.121,-0.46302 z m 41.213615,0.51864 c -0.50407,-0.15341 -0.54153,-0.20759 -0.15743,-0.22768 0.49509,-0.0259 0.49512,-0.0369 0.002,-0.62169 l -0.50214,-0.59531 0.67662,0.59531 c 0.41418,0.36441 1.02064,0.59531 1.56356,0.59531 0.48781,0 0.83733,0.0424 0.77669,0.0943 -0.28087,0.24022 -1.76467,0.34071 -2.3592,0.15977 z m 28.3522,-0.25406 c 0,-0.3638 0.06,-0.51263 0.13345,-0.33073 0.0734,0.1819 0.0734,0.47956 0,0.66146 -0.0734,0.1819 -0.13345,0.0331 -0.13345,-0.33073 z m -38.47251,0.0779 c 0.32742,-0.0631 0.8632,-0.0631 1.19062,0 0.32743,0.0631 0.0595,0.11466 -0.59531,0.11466 -0.65484,0 -0.92273,-0.0516 -0.59531,-0.11466 z m -14.47784,-0.21015 c 0,-0.14552 0.11542,-0.44318 0.25648,-0.66146 0.14107,-0.21828 0.25649,-0.27781 0.25649,-0.13229 0,0.14552 -0.11542,0.44318 -0.25649,0.66146 -0.14106,0.21828 -0.25648,0.27781 -0.25648,0.13229 z m 5.81274,-0.10106 c 0,-0.14552 0.11906,-0.33817 0.26458,-0.42811 0.14552,-0.0899 0.26458,-0.0445 0.26458,0.10106 0,0.14553 -0.11906,0.33817 -0.26458,0.42811 -0.14552,0.0899 -0.26458,0.0445 -0.26458,-0.10106 z m -40.9437,-0.95727 c 0.0029,-0.58209 0.05712,-0.78906 0.120406,-0.45994 0.06329,0.32912 0.06088,0.80537 -0.0053,1.05833 -0.06622,0.25297 -0.118003,-0.0163 -0.115067,-0.59839 z m 34.87917,-0.0221 c 0.0127,-0.30823 0.0754,-0.37092 0.15985,-0.15985 0.0764,0.19099 0.067,0.41919 -0.0209,0.50711 -0.0879,0.0879 -0.15045,-0.0683 -0.13896,-0.34726 z m 32.78744,0.31749 c 0,-0.0558 0.23829,-0.16375 0.52953,-0.23991 0.29125,-0.0762 0.46281,-0.0305 0.38126,0.10143 -0.14241,0.23043 -0.91079,0.34725 -0.91079,0.13848 z m -42.804464,-3.71419 c -0.04726,-2.99943 -0.139339,-3.77318 -0.495917,-4.16719 -0.246862,-0.27278 -0.308633,-0.48386 -0.141601,-0.48386 0.669368,0 0.857193,1.134 0.777299,4.69296 l -0.08174,3.64142 z m -6.65173,3.06541 c -0.01149,-0.19434 -0.437607,-1.19923 -0.94693,-2.23308 -0.577102,-1.17144 -0.926042,-2.26726 -0.926042,-2.90816 0,-1.07356 0.265762,-1.41385 2.496518,-3.19659 0.518686,-0.41451 0.943066,-0.98863 0.943066,-1.27581 0,-0.47716 -0.12267,-0.50682 -1.42395,-0.34423 -1.081326,0.1351 -1.576951,0.0777 -2.059823,-0.23873 -0.34973,-0.22915 -1.191257,-0.45287 -1.870061,-0.49715 -0.846663,-0.0552 -1.438531,-0.27248 -1.884978,-0.6919 -0.604829,-0.5682 -0.659656,-0.57701 -0.776339,-0.12474 -0.101979,0.39528 -0.131311,0.37488 -0.156241,-0.10867 -0.03899,-0.7562 0.602276,-0.78202 1.118482,-0.045 0.211987,0.30265 0.605691,0.52248 0.874899,0.4885 0.5155,-0.0651 0.718977,-0.0134 2.209261,0.5606 0.509322,0.19618 1.670182,0.33014 2.579687,0.29768 1.587383,-0.0566 1.653646,-0.0335 1.653646,0.57868 0,0.42503 -0.374991,0.95402 -1.124479,1.58628 -0.618464,0.52172 -1.39237,1.18617 -1.719792,1.47654 -0.890106,0.78938 -0.781548,2.18496 0.348375,4.47855 0.519029,1.05355 0.885616,2.05844 0.814639,2.23307 -0.09111,0.22418 -0.135191,0.21365 -0.149938,-0.0358 z m 65.188024,-0.0611 c -0.0959,-0.1552 -0.10294,-0.35364 -0.0156,-0.44097 0.0873,-0.0873 0.15878,-0.0199 0.15878,0.14989 0,0.16978 0.35379,0.30868 0.78619,0.30868 0.65966,0 0.82614,-0.13839 1.03447,-0.85989 0.13656,-0.47295 0.25902,-0.64371 0.27215,-0.37949 0.0441,0.88722 -0.48606,1.50396 -1.29275,1.50396 -0.42285,0 -0.84731,-0.12698 -0.94323,-0.28218 z m 4.95725,-0.37927 c 0.005,-0.43657 0.0647,-0.58313 0.13178,-0.3257 0.0671,0.25743 0.0627,0.61462 -0.01,0.79375 -0.0725,0.17913 -0.12736,-0.0315 -0.12197,-0.46805 z m -46.86194,-0.0221 c 0.0127,-0.30823 0.0754,-0.37092 0.15985,-0.15985 0.0764,0.19099 0.067,0.41919 -0.0209,0.50711 -0.0879,0.0879 -0.15045,-0.0684 -0.13896,-0.34726 z m 27.28278,-0.24254 c 0.005,-0.43656 0.0647,-0.58312 0.13177,-0.32569 0.0671,0.25743 0.0627,0.61462 -0.01,0.79375 -0.0725,0.17913 -0.12737,-0.0315 -0.12197,-0.46806 z m -13.01617,-0.26458 c 0.34178,-0.3638 0.68094,-0.66146 0.7537,-0.66146 0.0728,0 -0.14734,0.29766 -0.48911,0.66146 -0.34178,0.3638 -0.68094,0.66146 -0.7537,0.66146 -0.0728,0 0.14734,-0.29766 0.48911,-0.66146 z m -21.14578,-0.0221 c 0.0127,-0.30822 0.0754,-0.37092 0.15986,-0.15985 0.0764,0.19099 0.067,0.4192 -0.0209,0.50712 -0.0879,0.0879 -0.15046,-0.0684 -0.13897,-0.34727 z m 18.4662,-0.0441 c -0.32911,-0.41964 -0.31975,-0.429 0.0999,-0.0999 0.44073,0.34564 0.58089,0.56291 0.36313,0.56291 -0.0549,0 -0.2633,-0.20835 -0.46302,-0.46302 z m 27.08263,-0.33073 c 0,-0.50932 0.0545,-0.71768 0.121,-0.46302 0.0665,0.25467 0.0665,0.67138 0,0.92605 -0.0666,0.25466 -0.121,0.0463 -0.121,-0.46303 z m -80.395745,-2.24895 c 5.97e-4,-1.60073 0.04418,-2.22146 0.09684,-1.37941 0.05267,0.84206 0.05218,2.15175 -0.0011,2.91042 -0.05326,0.75867 -0.09635,0.0697 -0.09575,-1.53101 z m 83.296365,2.11666 c 0.005,-0.43656 0.0647,-0.58312 0.13177,-0.32569 0.0671,0.25743 0.0627,0.61462 -0.01,0.79375 -0.0725,0.17913 -0.12737,-0.0315 -0.12197,-0.46806 z m -41.3057,-0.28663 c 0.0127,-0.30822 0.0754,-0.37092 0.15986,-0.15985 0.0764,0.19099 0.067,0.4192 -0.0209,0.50712 -0.0879,0.0879 -0.15046,-0.0684 -0.13897,-0.34727 z m -10.58333,-0.26458 c 0.01269,-0.30823 0.07539,-0.37092 0.159852,-0.15985 0.07643,0.19099 0.06703,0.41919 -0.02089,0.50711 -0.08792,0.0879 -0.150453,-0.0684 -0.138964,-0.34726 z m 56.74148,-0.55093 c -0.12167,-0.64855 -0.5239,-1.31268 -1.15624,-1.90909 -0.53946,-0.50881 -0.71465,-0.77811 -0.39487,-0.60699 0.31613,0.16917 0.81392,0.61159 1.10618,0.98314 0.52797,0.67121 0.99774,2.16123 0.75721,2.40176 -0.0691,0.0691 -0.20967,-0.32183 -0.31228,-0.86882 z m -38.30768,0.51854 c 0.32742,-0.0631 0.8632,-0.0631 1.19062,0 0.32743,0.0631 0.0595,0.11467 -0.59531,0.11467 -0.65484,0 -0.92273,-0.0516 -0.59531,-0.11467 z m 8.73125,0 c 0.32742,-0.0631 0.8632,-0.0631 1.19063,0 0.32742,0.0631 0.0595,0.11467 -0.59532,0.11467 -0.65484,0 -0.92273,-0.0516 -0.59531,-0.11467 z m 5.67398,-0.47473 c 0.005,-0.43656 0.0647,-0.58312 0.13177,-0.32569 0.0671,0.25743 0.0627,0.61461 -0.01,0.79375 -0.0725,0.17913 -0.12737,-0.0315 -0.12197,-0.46806 z m 21.05393,0.19161 c -0.17085,-0.65333 -0.93798,-0.78284 -1.52682,-0.25776 -0.31552,0.28136 -0.31858,0.26162 -0.0205,-0.13229 0.19271,-0.25466 0.55934,-0.46302 0.81474,-0.46302 0.56397,0 1.14991,0.65134 0.99743,1.10876 -0.061,0.18304 -0.18018,0.068 -0.26483,-0.25569 z m -4.70114,-0.29267 c -6.1e-4,-1.07344 1.88188,-2.9421 2.96322,-2.94144 0.18912,1.1e-4 -0.15383,0.24656 -0.76212,0.54766 -0.77607,0.38416 -1.26928,0.87736 -1.65343,1.65344 -0.3011,0.60829 -0.54755,0.94144 -0.54767,0.74034 z m -13.30049,-0.80377 c -0.11509,-0.4401 -0.0806,-0.5434 0.11569,-0.34706 0.15375,0.15375 0.22748,0.43572 0.16386,0.6266 -0.0661,0.19816 -0.18599,0.0782 -0.27955,-0.27954 z m -21.60383,-0.70472 c 0.0127,-0.30822 0.0754,-0.37092 0.15985,-0.15985 0.0764,0.19099 0.067,0.4192 -0.0209,0.50712 -0.0879,0.0879 -0.15045,-0.0684 -0.13896,-0.34727 z m -5.957,-0.29727 c -0.14359,-0.37708 -0.1132,-0.40747 0.14811,-0.14811 0.18082,0.17947 0.26212,0.39297 0.18065,0.47443 -0.0815,0.0815 -0.2294,-0.0654 -0.32876,-0.32632 z m 25.85104,0.26826 c 0.25744,-0.0671 0.61462,-0.0627 0.79375,0.01 0.17914,0.0725 -0.0315,0.12736 -0.46805,0.12197 -0.43656,-0.005 -0.58313,-0.0647 -0.3257,-0.13177 z m -33.474824,-0.79712 c 0.327422,-0.0631 0.863203,-0.0631 1.190625,0 0.327422,0.0631 0.05953,0.11466 -0.595313,0.11466 -0.654844,0 -0.922734,-0.0516 -0.595312,-0.11466 z m 5.823914,-4.1e-4 c 0.32912,-0.0633 0.80537,-0.0609 1.05834,0.005 0.25296,0.0662 -0.0163,0.118 -0.5984,0.11507 -0.58208,-0.003 -0.78905,-0.0571 -0.45994,-0.12041 z m 5.81775,4.1e-4 c 0.32742,-0.0631 0.86321,-0.0631 1.19063,0 0.32742,0.0631 0.0595,0.11466 -0.59531,0.11466 -0.65485,0 -0.92274,-0.0516 -0.59532,-0.11466 z m 40.49779,-0.78777 c 0.191,-0.0764 0.4192,-0.067 0.50712,0.0209 0.0879,0.0879 -0.0684,0.15045 -0.34727,0.13896 -0.30822,-0.0127 -0.37092,-0.0754 -0.15985,-0.15985 z m -73.473867,-0.56426 c -0.01688,-0.33699 0.106915,-0.86983 0.275102,-1.18409 0.168188,-0.31426 0.390701,-1.22916 0.494476,-2.03312 0.179641,-1.39172 0.190342,-1.40813 0.223372,-0.34262 0.01908,0.61552 -0.136747,1.56802 -0.346283,2.11666 -0.209535,0.54865 -0.433849,1.23567 -0.498474,1.52671 -0.102235,0.46042 -0.121489,0.44957 -0.148193,-0.0835 z m -10.563832,-0.57792 c 0.128056,-0.4582 1.571313,-1.22127 2.727931,-1.44228 0.436563,-0.0834 0.138906,0.0893 -0.661458,0.38395 -0.800365,0.29459 -1.6177,0.74253 -1.816299,0.99542 -0.265426,0.33798 -0.331706,0.35464 -0.250174,0.0629 z m 21.777932,-1.32291 c -0.333544,-0.14333 -0.38245,-0.22739 -0.132292,-0.22739 0.218281,0 0.635,0.10232 0.926042,0.22739 0.333544,0.14333 0.38245,0.22739 0.132291,0.22739 -0.218281,0 -0.635,-0.10233 -0.926041,-0.22739 z M 69.85,137.31875 c 0.363803,-0.11651 0.899584,-0.21183 1.190625,-0.21183 0.419012,0 0.391473,0.0441 -0.132291,0.21183 -0.363802,0.11651 -0.899584,0.21184 -1.190625,0.21184 -0.419012,0 -0.391473,-0.0441 0.132291,-0.21184 z m 16.710527,-0.26458 c 0,-0.3638 0.06005,-0.51263 0.133453,-0.33073 0.0734,0.1819 0.0734,0.47956 0,0.66146 -0.0734,0.1819 -0.133453,0.0331 -0.133453,-0.33073 z m -14.527714,-0.18239 c 0.254661,-0.0666 0.67138,-0.0666 0.926042,0 0.254661,0.0666 0.0463,0.121 -0.463021,0.121 -0.509323,0 -0.717682,-0.0545 -0.463021,-0.121 z m 2.579688,-0.32037 c 1.180469,-0.15735 1.191978,-0.16886 1.349323,-1.34933 l 0.158699,-1.19062 0.03974,1.22846 c 0.04472,1.38244 -0.180626,1.57491 -1.767838,1.50993 -0.938211,-0.0384 -0.930878,-0.045 0.220076,-0.19844 z m 11.91997,-0.91637 c -0.320771,-0.84369 -0.892833,-1.01487 -2.249725,-0.6732 -0.930695,0.23435 -1.288491,0.20992 -1.952176,-0.13328 -0.446943,-0.23112 -0.990399,-0.42023 -1.20768,-0.42023 -0.21728,0 -0.606051,-0.35718 -0.863935,-0.79375 -0.49242,-0.8336 -0.769568,-0.94173 -1.39668,-0.54492 -0.247929,0.15687 -0.567935,0.10939 -0.918767,-0.13635 -0.731596,-0.51243 -1.418884,-0.47438 -1.552672,0.086 -0.08415,0.35246 -0.104342,0.33666 -0.08455,-0.0661 0.0298,-0.60638 1.041879,-0.87129 1.59019,-0.41623 0.191492,0.15893 0.711048,0.21253 1.170074,0.12073 0.725402,-0.14508 0.882579,-0.0651 1.294648,0.65882 0.257955,0.45318 0.647603,0.82544 0.865884,0.82726 0.218281,0.002 0.751802,0.18837 1.185601,0.41457 0.644739,0.33618 1.00028,0.35799 1.947578,0.11946 1.31478,-0.33107 2.237934,0.0524 2.495278,1.03647 0.195112,0.74611 -0.0303,0.69087 -0.32307,-0.0792 z"
           id="path2" /></g></g></g></svg>
